<?xml version="1.0" standalone="no"?>
<!DOCTYPE svg PUBLIC "-//W3C//DTD SVG 20010904//EN"
 "http://www.w3.org/TR/2001/REC-SVG-20010904/DTD/svg10.dtd">
<svg version="1.0" xmlns="http://www.w3.org/2000/svg"
 width="512.000000pt" height="512.000000pt" viewBox="0 0 512.000000 512.000000"
 preserveAspectRatio="xMidYMid meet">
<metadata>
Created by potrace 1.14, written by Peter Selinger 2001-2017
</metadata>
<g transform="translate(0.000000,512.000000) scale(0.100000,-0.100000)"
fill="#000000" stroke="none">
<path d="M2520 5092 c-14 -1 -44 -5 -67 -8 l-42 -5 29 -48 c33 -53 84 -172 94
-217 4 -16 9 -40 12 -54 12 -56 11 -228 -3 -295 -40 -192 -147 -361 -306 -481
-75 -56 -133 -86 -229 -118 -89 -30 -139 -36 -338 -40 -164 -4 -224 -13 -305
-48 -273 -115 -435 -410 -379 -692 15 -75 37 -137 69 -191 l24 -41 -72 -23
c-277 -89 -502 -301 -604 -569 -86 -228 -80 -491 17 -717 21 -48 80 -151 110
-190 61 -80 248 -245 278 -245 6 0 12 -4 14 -8 9 -21 166 -81 279 -107 68 -15
309 -29 309 -17 0 2 -16 26 -35 52 -96 131 -108 328 -28 482 24 48 118 150
198 218 74 63 191 165 206 179 9 9 42 39 75 66 32 28 65 57 74 65 9 8 45 40
80 70 36 30 67 58 70 61 3 3 77 68 165 144 88 76 165 143 170 149 6 6 39 36
75 66 36 30 70 60 75 66 6 6 42 37 80 70 39 32 75 64 80 70 22 25 108 84 149
103 120 52 257 49 382 -10 110 -52 201 -151 249 -269 23 -60 29 -198 10 -271
-8 -30 -59 -158 -114 -285 -54 -126 -98 -230 -96 -232 1 -1 35 -4 76 -7 203
-12 358 -121 434 -305 21 -50 28 -86 30 -155 4 -107 -16 -185 -70 -266 -20
-29 -38 -55 -40 -59 -5 -8 196 -5 255 4 310 49 575 240 716 517 149 296 128
662 -55 943 -62 96 -178 211 -275 274 -71 46 -194 103 -265 122 l-40 10 34 68
c48 98 65 169 67 282 1 36 -2 74 -5 85 -4 11 -9 35 -12 52 -13 76 -64 180
-128 258 -114 141 -309 233 -485 231 -51 -1 -61 2 -56 14 42 106 65 336 43
445 -16 83 -17 88 -33 141 -45 146 -125 276 -240 389 -92 91 -163 141 -273
192 -126 58 -323 97 -433 85z"/>
<path d="M2961 2538 c-18 -10 -47 -32 -64 -48 -18 -17 -36 -30 -41 -30 -4 0
-6 -7 -3 -14 4 -9 1 -13 -6 -11 -7 3 -30 -12 -53 -33 -22 -20 -69 -62 -105
-92 -35 -30 -73 -64 -84 -75 -12 -11 -38 -33 -58 -48 -21 -16 -47 -38 -60 -51
-12 -12 -66 -60 -119 -106 -54 -45 -98 -87 -98 -91 0 -5 -5 -9 -10 -9 -9 0
-108 -82 -179 -148 -10 -9 -42 -37 -71 -62 -69 -58 -139 -120 -162 -142 -10
-10 -20 -18 -23 -18 -3 0 -23 -17 -44 -37 -22 -21 -60 -55 -86 -77 -63 -52
-85 -90 -85 -148 0 -27 5 -48 11 -48 5 0 8 -4 4 -10 -3 -5 10 -25 29 -45 31
-32 46 -40 69 -36 4 0 7 -3 7 -7 0 -5 125 -8 278 -8 152 1 284 0 293 -2 13 -3
7 -25 -37 -130 -30 -70 -60 -140 -69 -155 -8 -16 -15 -33 -15 -38 0 -6 -11
-34 -24 -62 -110 -237 -227 -524 -227 -558 -1 -66 27 -118 82 -148 70 -40 127
-26 210 50 14 13 52 47 84 74 32 28 63 55 69 60 48 43 177 154 199 172 17 13
26 27 21 34 -5 8 -3 9 5 4 7 -4 20 1 31 11 9 11 28 28 41 38 27 21 148 125
165 142 6 5 35 30 64 55 29 24 60 51 69 59 9 9 44 40 78 69 35 29 60 58 56 64
-3 6 -1 7 5 3 7 -4 28 8 49 28 21 19 49 44 63 56 14 11 48 40 75 64 28 24 65
56 84 72 44 38 96 88 98 94 1 3 7 19 13 35 14 36 5 110 -17 145 -16 24 -51 55
-65 55 -3 0 -10 3 -14 8 -4 4 -138 7 -297 7 -159 -1 -291 1 -293 3 -2 2 14 46
37 98 48 111 62 142 64 149 1 3 9 23 19 45 22 51 39 89 41 95 4 13 27 67 50
116 14 30 25 56 25 58 0 2 8 21 17 42 9 22 17 41 18 44 1 3 11 25 22 50 21 43
48 107 52 122 1 4 11 27 21 50 21 45 27 138 10 138 -5 0 -10 6 -10 13 0 18
-49 63 -80 73 -44 14 -95 11 -129 -8z m82 -393 c-3 -9 -8 -14 -10 -11 -3 3 -2
9 2 15 9 16 15 13 8 -4z m-218 -224 c3 -5 2 -12 -3 -15 -5 -3 -9 1 -9 9 0 17
3 19 12 6z m120 -9 c-3 -3 -11 0 -18 7 -9 10 -8 11 6 5 10 -3 15 -9 12 -12z
m-375 -92 c0 -5 -5 -10 -11 -10 -5 0 -7 5 -4 10 3 6 8 10 11 10 2 0 4 -4 4
-10z m-154 -102 c3 -4 -1 -5 -10 -4 -8 1 -18 5 -22 8 -3 4 1 5 10 4 8 -1 18
-5 22 -8z m285 -285 c13 -16 12 -17 -3 -4 -17 13 -22 21 -14 21 2 0 10 -8 17
-17z m-691 -97 c0 -2 -8 -10 -17 -17 -16 -13 -17 -12 -4 4 13 16 21 21 21 13z
m1401 -133 c13 -16 12 -17 -3 -4 -10 7 -18 15 -18 17 0 8 8 3 21 -13z m-1001
-23 c0 -5 -2 -10 -4 -10 -3 0 -8 5 -11 10 -3 6 -1 10 4 10 6 0 11 -4 11 -10z
m-160 -480 c0 -5 -4 -10 -10 -10 -5 0 -10 5 -10 10 0 6 5 10 10 10 6 0 10 -4
10 -10z m540 -60 c0 -5 -5 -10 -11 -10 -5 0 -7 5 -4 10 3 6 8 10 11 10 2 0 4
-4 4 -10z"/>
</g>
</svg>
