<?xml version="1.0" standalone="no"?>
<!DOCTYPE svg PUBLIC "-//W3C//DTD SVG 20010904//EN"
 "http://www.w3.org/TR/2001/REC-SVG-20010904/DTD/svg10.dtd">
<svg version="1.0" xmlns="http://www.w3.org/2000/svg"
 width="700.000000pt" height="700.000000pt" viewBox="0 0 700.000000 700.000000"
 preserveAspectRatio="xMidYMid meet">
<metadata>
Created by potrace 1.14, written by Peter Selinger 2001-2017
</metadata>
<g transform="translate(0.000000,700.000000) scale(0.100000,-0.100000)"
fill="#000000" stroke="none">
<path d="M3409 6956 c-2 -2 -25 -6 -52 -8 -26 -3 -50 -8 -53 -11 -3 -3 8 -27
26 -52 52 -75 107 -204 136 -316 22 -86 27 -127 28 -239 1 -150 -3 -188 -34
-305 -103 -386 -447 -704 -841 -775 -93 -17 -119 -19 -324 -20 -212 -2 -262
-8 -377 -49 -344 -120 -581 -450 -579 -806 1 -104 11 -172 37 -254 23 -70 74
-182 96 -208 7 -9 6 -14 -3 -17 -187 -56 -300 -105 -416 -183 -366 -243 -583
-653 -578 -1088 2 -130 9 -191 37 -304 96 -397 390 -734 774 -888 89 -36 209
-69 283 -79 25 -3 53 -7 61 -9 14 -4 202 -8 279 -6 l33 1 -34 43 c-47 58 -65
88 -89 149 -87 213 -43 482 107 656 20 24 361 327 758 674 611 534 791 693
870 763 100 90 223 190 268 218 91 59 194 88 302 88 188 -1 339 -64 471 -196
130 -130 188 -267 188 -445 0 -132 -19 -192 -176 -555 -74 -170 -134 -311
-133 -311 1 -1 46 -4 101 -7 116 -7 196 -26 280 -67 160 -78 280 -222 338
-405 60 -188 25 -384 -98 -557 -41 -56 -52 -51 110 -50 157 1 234 11 360 44
503 133 891 577 952 1088 30 256 -13 512 -124 737 -74 148 -122 213 -263 353
-150 150 -315 249 -515 310 -38 12 -76 23 -82 25 -9 3 -4 19 15 52 75 128 113
270 112 418 -1 110 -5 140 -30 233 -102 370 -447 632 -834 632 -70 0 -77 2
-71 18 16 41 55 200 62 251 9 75 10 239 0 326 -23 210 -114 434 -250 615 -203
271 -498 449 -840 506 -41 7 -282 15 -288 10z"/>
<path d="M4100 3481 c-5 -9 -10 -11 -10 -4 0 25 -61 -12 -136 -81 -39 -36 -41
-41 -26 -53 15 -12 14 -13 -6 -3 -31 15 -67 -17 -58 -52 7 -23 7 -23 -6 -2
-10 18 -15 19 -25 9 -6 -7 -9 -16 -6 -19 4 -3 1 -6 -6 -6 -17 0 -42 -26 -33
-35 4 -5 2 -5 -5 -2 -15 9 -45 -21 -37 -35 5 -7 2 -8 -5 -3 -18 10 -66 -36
-49 -47 8 -6 5 -7 -10 -3 -17 5 -24 1 -31 -17 -5 -13 -7 -30 -6 -39 2 -9 -3
-16 -10 -16 -8 0 -11 5 -7 11 7 13 12 36 7 36 -9 0 -59 -56 -57 -63 1 -5 -1
-6 -6 -3 -4 3 -28 -13 -53 -35 -24 -21 -47 -39 -51 -39 -4 0 -5 -7 -2 -15 5
-12 2 -14 -12 -8 -17 6 -17 5 -5 -10 12 -15 12 -17 -2 -11 -10 3 -26 -4 -41
-19 -14 -14 -28 -22 -32 -18 -4 3 -4 -2 -1 -12 4 -10 3 -16 -3 -12 -14 9 -147
-110 -142 -127 1 -5 -2 -6 -8 -3 -15 9 -61 -34 -53 -49 3 -6 3 -8 -2 -4 -12
11 -47 -12 -42 -27 4 -9 -1 -11 -14 -8 -13 4 -19 0 -19 -11 0 -9 -5 -16 -10
-16 -6 0 -21 -9 -33 -20 -58 -53 -99 -89 -153 -135 -32 -27 -69 -60 -81 -71
-12 -12 -24 -19 -27 -16 -12 11 -5 -15 7 -28 10 -12 9 -12 -6 -1 -15 12 -21
10 -43 -13 -15 -14 -23 -26 -18 -27 5 -1 -2 -4 -16 -8 -15 -4 -24 -14 -24 -24
1 -9 -3 -14 -8 -11 -6 4 -21 -6 -34 -21 -13 -16 -24 -25 -24 -22 0 3 -12 -6
-27 -20 -16 -14 -27 -30 -25 -35 1 -5 -2 -7 -7 -4 -5 4 -16 -1 -24 -9 -9 -8
-21 -15 -27 -15 -7 0 -10 -8 -7 -19 3 -13 0 -18 -7 -15 -7 3 -29 -10 -49 -28
-20 -18 -54 -48 -76 -66 -23 -19 -39 -38 -35 -43 3 -5 -2 -6 -10 -3 -11 4 -16
0 -16 -11 0 -10 -5 -13 -12 -9 -8 5 -9 2 -4 -12 4 -10 4 -15 0 -12 -10 11 -44
-11 -44 -27 0 -8 -4 -15 -9 -15 -13 0 -34 -68 -28 -91 3 -10 2 -19 -3 -19 -11
0 8 -78 27 -111 12 -20 19 -25 25 -16 5 8 8 4 8 -12 0 -17 4 -22 16 -17 8 3
12 2 9 -3 -6 -11 35 -42 46 -35 4 2 11 0 14 -6 5 -8 12 -7 23 2 13 11 14 11 7
-1 -6 -11 -4 -13 8 -8 10 3 17 3 17 -1 0 -4 9 -8 20 -8 11 0 20 4 20 9 0 4 5
5 12 1 6 -4 35 -7 65 -8 41 -1 53 2 54 14 0 13 1 13 7 0 8 -18 46 -24 39 -6
-3 7 1 13 9 13 7 0 11 -4 8 -9 -6 -9 -4 -9 78 -11 32 -1 58 2 58 6 0 4 9 3 20
-3 16 -9 20 -8 21 7 0 15 2 15 7 3 8 -18 46 -24 39 -6 -3 7 1 13 9 13 7 0 11
-4 9 -8 -3 -3 5 -9 16 -12 14 -4 19 -1 16 7 -3 7 -1 19 4 27 8 12 10 12 8 -1
-3 -31 2 -35 43 -35 29 0 45 5 50 15 6 13 7 13 7 -1 1 -9 8 -16 16 -16 8 0 15
7 16 16 0 12 3 11 9 -4 6 -13 9 -15 9 -5 1 9 4 11 9 5 10 -15 73 -13 68 2 -3
6 3 17 12 24 14 11 15 11 5 0 -12 -14 -6 -44 7 -36 4 3 14 -3 21 -13 12 -15
12 -16 -2 -5 -19 15 -40 -2 -32 -25 4 -10 2 -13 -5 -8 -7 4 -12 2 -12 -6 0 -7
-7 -26 -15 -41 -8 -15 -11 -35 -8 -44 4 -9 2 -14 -3 -10 -5 3 -15 -6 -21 -21
-16 -37 -36 -85 -38 -94 -2 -5 -4 -11 -5 -15 -1 -5 -2 -11 -1 -15 0 -5 -4 -8
-10 -8 -8 0 -7 -5 1 -15 7 -9 10 -18 6 -22 -3 -3 -6 -1 -6 5 0 7 -5 12 -11 12
-5 0 -8 -4 -5 -9 4 -5 1 -11 -4 -13 -6 -2 -12 -13 -13 -26 0 -12 -5 -22 -10
-22 -5 0 -7 -9 -4 -20 3 -11 2 -18 -3 -15 -4 3 -10 -2 -13 -9 -3 -8 -1 -17 6
-20 7 -2 6 -5 -4 -5 -14 -1 -43 -63 -39 -85 1 -5 -2 -12 -7 -15 -15 -11 -43
-73 -37 -82 3 -5 1 -9 -4 -9 -9 0 -27 -47 -24 -62 1 -5 -2 -8 -7 -8 -9 0 -26
-48 -23 -62 1 -5 -4 -8 -10 -8 -9 0 -8 -4 2 -10 13 -8 13 -10 -2 -10 -11 0
-15 -7 -14 -24 2 -16 -1 -23 -10 -19 -8 3 -11 -2 -10 -14 2 -10 -3 -23 -11
-28 -8 -6 -15 -20 -16 -33 0 -12 -5 -22 -10 -22 -5 0 -7 -9 -4 -20 3 -11 1
-18 -4 -14 -5 3 -9 -1 -9 -10 0 -8 3 -16 8 -19 4 -2 2 -2 -5 -1 -19 5 -26 -15
-12 -32 10 -12 9 -13 -6 -8 -13 5 -16 4 -11 -4 4 -7 2 -12 -4 -12 -6 0 -8 -5
-5 -10 3 -6 2 -10 -2 -10 -8 0 -45 -93 -43 -106 1 -4 -3 -10 -10 -14 -12 -8
-22 -102 -13 -137 3 -13 9 -20 14 -17 5 3 6 -3 2 -12 -5 -13 -2 -16 9 -12 8 4
15 1 15 -8 0 -7 -4 -11 -9 -8 -5 4 -4 -3 4 -15 14 -24 102 -86 134 -95 18 -5
21 -2 20 26 -1 20 4 33 14 35 9 3 11 1 5 -4 -6 -4 -11 -19 -10 -33 0 -19 6
-26 24 -28 13 -2 21 0 17 6 -4 6 3 8 16 4 14 -3 19 -1 14 6 -3 6 -2 13 4 17 5
3 10 1 10 -4 0 -6 5 -11 11 -11 6 0 9 7 5 15 -3 8 -2 14 2 14 20 -3 34 4 72
38 36 33 39 38 23 45 -13 6 -10 7 9 3 14 -3 28 -2 30 3 2 4 27 27 56 50 28 24
49 48 46 53 -3 5 0 8 8 7 7 -2 12 3 10 10 -1 8 2 11 7 7 6 -3 26 10 45 28 19
19 38 32 42 28 4 -3 4 3 0 14 -4 11 -4 16 0 12 8 -7 64 23 64 35 0 4 -8 12
-17 17 -10 6 -13 11 -8 11 6 0 16 -5 22 -11 14 -14 33 -3 33 17 0 8 4 13 8 10
5 -3 34 19 65 49 31 29 57 51 57 49 0 -2 8 4 18 14 11 9 29 25 41 35 12 10 19
23 15 29 -4 6 -3 8 3 5 13 -8 125 82 118 93 -3 5 0 12 6 16 8 4 9 3 5 -4 -13
-22 2 -12 45 28 24 22 47 40 52 40 4 0 6 4 2 9 -3 5 3 12 12 16 20 6 73 50 73
60 0 3 -5 3 -12 -1 -7 -4 -8 -3 -4 4 4 6 13 9 20 6 8 -3 21 5 30 18 9 12 16
19 16 15 0 -4 16 7 35 24 19 18 32 36 28 42 -3 6 -2 7 4 4 12 -8 85 52 78 64
-4 5 0 6 8 3 8 -3 27 10 45 30 16 19 34 32 38 28 4 -4 4 1 1 11 -4 11 -3 16 4
12 13 -8 41 14 33 26 -3 5 -2 9 3 8 19 -3 33 2 33 12 0 5 -5 7 -12 3 -7 -4 -8
-3 -4 4 10 16 -7 15 -23 -1 -11 -9 -12 -9 -7 0 10 19 47 37 44 22 -2 -6 3 -14
11 -17 10 -3 12 0 8 10 -3 10 0 15 11 14 9 0 16 5 14 12 -1 6 4 11 10 10 7 -2
12 2 11 9 -2 8 4 10 15 6 14 -6 15 -4 5 8 -11 13 -9 15 10 15 13 -1 21 4 19
12 -1 6 1 11 5 10 12 -4 54 28 46 35 -3 4 1 7 11 7 9 0 19 7 22 15 3 8 14 17
25 20 10 4 19 11 19 16 0 6 -4 7 -10 4 -6 -3 -7 1 -3 10 4 13 8 14 14 4 5 -9
15 -6 36 13 15 15 45 41 65 58 21 18 35 36 32 41 -4 6 -10 6 -18 0 -8 -7 -12
-5 -12 8 0 12 5 17 15 13 8 -3 12 -1 8 5 -3 5 0 10 8 10 11 0 12 -4 4 -13 -7
-8 -6 -15 2 -20 7 -4 15 -2 17 4 2 7 10 12 18 12 8 0 14 6 14 13 0 7 9 18 20
24 25 16 53 70 44 85 -5 7 -3 8 5 3 9 -5 12 -1 11 11 -1 11 -1 21 0 24 7 19 7
59 0 55 -4 -3 -8 10 -8 29 0 43 -9 59 -29 51 -13 -4 -14 -3 -3 10 10 12 10 18
0 30 -7 8 -16 12 -21 9 -5 -3 -9 5 -9 17 0 16 -5 20 -20 16 -11 -3 -18 -1 -14
4 3 5 -7 14 -23 20 -34 13 -243 20 -243 8 0 -5 -5 -9 -11 -9 -5 0 -8 3 -6 8 9
14 -58 8 -69 -7 -12 -16 -54 -26 -54 -12 0 5 8 8 18 7 9 0 18 3 20 9 1 6 -34
10 -88 10 -49 0 -90 -4 -90 -9 0 -4 -7 -3 -15 4 -19 16 -19 6 0 -24 13 -20 13
-23 0 -23 -8 0 -12 4 -9 9 3 4 -1 16 -8 26 -11 15 -26 18 -83 17 -39 -1 -77
-5 -84 -10 -10 -5 -12 -4 -7 3 4 7 2 12 -3 12 -6 0 -11 -5 -11 -11 0 -8 -4 -8
-15 1 -8 6 -19 9 -25 5 -5 -3 -19 -8 -29 -10 -18 -3 -19 0 -10 22 5 13 6 29 3
35 -4 6 -2 8 3 5 6 -4 16 8 23 26 7 17 18 46 25 62 8 17 21 50 31 75 10 25 24
56 32 68 12 19 13 25 3 31 -10 6 -9 10 3 14 13 5 44 61 51 93 2 6 10 28 20 47
9 20 13 42 9 49 -4 7 -3 10 1 5 8 -6 54 80 59 108 1 6 5 16 9 23 5 6 5 17 1
24 -4 6 -3 8 3 5 8 -5 44 64 48 93 0 3 9 20 18 38 10 17 14 32 10 32 -5 0 -3
4 2 8 11 7 42 76 47 102 3 17 -42 21 -55 5 -5 -6 -7 -4 -4 5 2 10 15 15 40 14
26 -2 37 2 37 13 0 8 -5 11 -12 7 -7 -4 -8 -3 -4 5 4 6 11 9 16 6 5 -3 11 -1
15 5 3 5 1 10 -6 10 -7 0 -5 6 6 14 11 8 16 19 12 30 -4 9 -3 15 1 12 4 -2 13
7 19 22 33 74 47 108 49 115 1 4 3 10 4 15 1 4 3 12 5 17 1 6 3 13 4 18 6 17
4 53 -3 65 -4 6 -5 12 -1 12 3 0 -2 17 -10 37 -19 46 -57 84 -111 111 -37 19
-41 19 -52 4 -8 -12 -10 -13 -7 -2 7 22 -62 23 -75 1z m41 -8 c13 -17 13 -17
-5 -3 -18 13 -19 13 -14 -1 4 -9 1 -16 -7 -16 -10 0 -11 5 -4 19 12 22 13 22
30 1z m-61 -13 c8 -5 11 -10 5 -10 -5 0 -17 5 -25 10 -8 5 -10 10 -5 10 6 0
17 -5 25 -10z m120 -15 c0 -1 -6 -7 -13 -13 -10 -8 -13 -6 -13 7 0 11 6 17 13
14 7 -3 13 -6 13 -8z m30 -5 c0 -5 -4 -10 -10 -10 -5 0 -10 5 -10 10 0 6 5 10
10 10 6 0 10 -4 10 -10z m-136 -25 c-4 -8 -11 -15 -16 -15 -6 0 -5 6 2 15 7 8
14 15 16 15 2 0 1 -7 -2 -15z m-77 -1 c-3 -3 -12 -4 -19 -1 -8 3 -5 6 6 6 11
1 17 -2 13 -5z m-40 -26 c-3 -8 -6 -5 -6 6 -1 11 2 17 5 13 3 -3 4 -12 1 -19z
m208 13 c3 -5 2 -12 -3 -15 -5 -3 -9 1 -9 9 0 17 3 19 12 6z m102 3 c-8 -8
-48 -13 -43 -6 2 4 14 8 26 9 12 1 20 0 17 -3z m-74 -17 c3 -8 -1 -14 -8 -14
-7 0 -11 6 -8 14 3 7 6 13 8 13 2 0 5 -6 8 -13z m-158 -5 c-12 -8 -14 -47 -2
-58 4 -4 7 -12 7 -18 -1 -16 -24 26 -25 44 0 8 -3 20 -7 25 -4 6 3 12 15 12
12 1 17 -1 12 -5z m40 -2 c3 -6 -1 -7 -9 -4 -18 7 -21 14 -7 14 6 0 13 -4 16
-10z m232 -5 c0 -7 -10 -18 -21 -25 -19 -12 -20 -12 -8 3 8 9 11 20 8 25 -3 5
1 9 8 9 7 0 13 -6 13 -12z m-185 -39 c10 6 11 4 0 -7 -10 -11 -15 -10 -30 6
-15 17 -15 18 0 6 9 -7 23 -9 30 -5z m100 -8 c-2 -10 -6 -18 -7 -18 -1 0 -5 8
-7 18 -3 11 0 19 7 19 7 0 10 -8 7 -19z m-332 -8 c0 -5 -5 -10 -11 -10 -5 0
-7 5 -4 10 3 6 8 10 11 10 2 0 4 -4 4 -10z m60 6 c0 -2 -7 -7 -16 -10 -8 -3
-12 -2 -9 4 6 10 25 14 25 6z m316 -28 c-2 -18 2 -36 8 -40 6 -4 1 -6 -11 -5
-12 0 -19 6 -15 12 4 5 7 18 8 28 3 31 4 37 8 37 3 0 3 -15 2 -32z m-119 -10
c2 -12 1 -19 -2 -16 -3 3 -8 16 -10 28 -2 12 -1 20 2 16 4 -4 8 -16 10 -28z
m-159 -2 c-2 -1 -10 -7 -19 -14 -13 -9 -16 -9 -16 3 0 8 5 11 10 8 7 -4 8 1 3
12 -5 15 -4 16 9 5 9 -7 14 -13 13 -14z m19 -8 c-3 -8 -6 -5 -6 6 -1 11 2 17
5 13 3 -3 4 -12 1 -19z m190 16 c-3 -3 -12 -4 -19 -1 -8 3 -5 6 6 6 11 1 17
-2 13 -5z m-153 -20 c3 -8 2 -12 -4 -9 -6 3 -10 10 -10 16 0 14 7 11 14 -7z
m80 5 c3 -3 -10 -5 -29 -4 -18 0 -36 3 -39 6 -3 3 10 5 29 4 18 0 36 -3 39 -6z
m190 3 c3 -5 -1 -9 -9 -9 -8 0 -12 4 -9 9 3 4 7 8 9 8 2 0 6 -4 9 -8z m-490
-24 c-5 -7 -2 -9 8 -6 8 4 15 1 15 -7 0 -8 -7 -11 -16 -7 -14 5 -14 4 -1 -14
14 -17 14 -18 -2 -6 -9 7 -15 21 -13 30 5 23 4 22 11 22 3 0 2 -5 -2 -12z
m366 8 c0 -2 -7 -7 -16 -10 -8 -3 -12 -2 -9 4 6 10 25 14 25 6z m-295 -24 c-3
-3 -11 0 -18 7 -9 10 -8 11 6 5 10 -3 15 -9 12 -12z m28 3 c-3 -9 -8 -14 -10
-11 -3 3 -2 9 2 15 9 16 15 13 8 -4z m181 -15 c-6 -6 -10 -3 -10 10 0 13 4 16
10 10 7 -7 7 -13 0 -20z m23 -2 c-3 -7 -5 -2 -5 12 0 14 2 19 5 13 2 -7 2 -19
0 -25z m-330 0 c-3 -8 -6 -5 -6 6 -1 11 2 17 5 13 3 -3 4 -12 1 -19z m233 12
c0 -5 -4 -10 -10 -10 -5 0 -10 5 -10 10 0 6 5 10 10 10 6 0 10 -4 10 -10z
m207 -16 c-3 -3 -12 -4 -19 -1 -8 3 -5 6 6 6 11 1 17 -2 13 -5z m-470 -26 c-3
-8 -6 -5 -6 6 -1 11 2 17 5 13 3 -3 4 -12 1 -19z m184 0 c3 -1 13 3 21 9 12
10 15 10 15 -1 0 -8 -11 -12 -26 -11 -14 1 -31 -2 -36 -6 -7 -5 -11 -1 -11 11
0 18 5 17 37 -2z m-147 -4 c3 -8 2 -12 -4 -9 -6 3 -10 10 -10 16 0 14 7 11 14
-7z m203 -6 c-3 -8 -6 -5 -6 6 -1 11 2 17 5 13 3 -3 4 -12 1 -19z m97 13 c-7
-8 -54 -9 -49 -1 2 3 15 6 29 6 14 0 23 -2 20 -5z m131 -2 c3 -3 -13 -5 -35
-4 -22 1 -40 -3 -40 -8 0 -6 -3 -8 -6 -4 -3 3 -4 10 -1 15 6 9 72 10 82 1z
m30 -21 c-7 -32 -13 -32 -11 1 0 16 4 27 8 25 4 -2 5 -14 3 -26z m36 9 c-10
-9 -11 -8 -5 6 3 10 9 15 12 12 3 -3 0 -11 -7 -18z m-587 -5 c3 -5 -1 -9 -9
-9 -8 0 -12 4 -9 9 3 4 7 8 9 8 2 0 6 -4 9 -8z m149 -5 c-4 -6 0 -8 9 -5 8 4
15 0 15 -7 0 -10 -5 -11 -18 -4 -24 12 -31 26 -14 26 8 0 11 -5 8 -10z m174
-19 c-3 -8 -6 -5 -6 6 -1 11 2 17 5 13 3 -3 4 -12 1 -19z m26 7 c-3 -9 -8 -14
-10 -11 -3 3 -2 9 2 15 9 16 15 13 8 -4z m122 5 c-4 -6 -1 -19 7 -28 12 -15
11 -16 -4 -4 -9 8 -21 11 -26 8 -5 -3 -9 1 -9 9 0 8 4 12 8 9 4 -2 10 0 14 6
3 5 8 10 11 10 3 0 2 -5 -1 -10z m-395 -10 c0 -5 -4 -10 -10 -10 -5 0 -10 5
-10 10 0 6 5 10 10 10 6 0 10 -4 10 -10z m191 -13 c-10 -9 -11 -8 -5 6 3 10 9
15 12 12 3 -3 0 -11 -7 -18z m26 1 c-3 -8 -6 -5 -6 6 -1 11 2 17 5 13 3 -3 4
-12 1 -19z m74 -1 c-10 -9 -11 -8 -5 6 3 10 9 15 12 12 3 -3 0 -11 -7 -18z
m213 14 c3 -5 -1 -11 -9 -14 -9 -4 -12 -1 -8 9 6 16 10 17 17 5z m-445 -43
c35 20 37 20 37 2 0 -12 -4 -16 -11 -11 -5 4 -22 7 -38 6 -15 -1 -25 0 -22 3
3 3 -1 12 -7 21 -7 9 -2 7 11 -4 13 -11 26 -18 30 -17z m188 0 c-3 -8 -6 -5
-6 6 -1 11 2 17 5 13 3 -3 4 -12 1 -19z m-331 -22 c-2 -38 -12 -39 -12 -1 0
18 3 32 7 30 3 -3 5 -15 5 -29z m91 12 c-3 -8 -6 -5 -6 6 -1 11 2 17 5 13 3
-3 4 -12 1 -19z m190 5 c0 -7 -5 -9 -11 -5 -17 10 -56 10 -56 -1 0 -6 -3 -8
-6 -4 -12 12 6 23 39 23 20 0 34 -5 34 -13z m141 -3 c2 -9 0 -11 -5 -5 -9 12
-42 13 -59 3 -6 -4 -11 -1 -11 6 0 18 69 14 75 -4z m137 -11 c-4 -5 -12 -9
-18 -8 -9 0 -8 2 1 6 6 2 9 10 6 15 -4 7 -2 8 5 4 6 -4 9 -12 6 -17z m-40 -7
c-3 -3 -11 0 -18 7 -9 10 -8 11 6 5 10 -3 15 -9 12 -12z m-279 -38 c0 -13 -2
-22 -5 -19 -3 3 -6 17 -7 31 0 13 2 22 5 19 3 -3 6 -17 7 -31z m84 26 c0 -5
-4 -10 -10 -10 -5 0 -10 5 -10 10 0 6 5 10 10 10 6 0 10 -4 10 -10z m66 -18
c-17 -16 -18 -16 -5 5 7 12 15 20 18 17 3 -2 -3 -12 -13 -22z m31 6 c-3 -8 -6
-5 -6 6 -1 11 2 17 5 13 3 -3 4 -12 1 -19z m106 -1 c7 3 8 2 4 -2 -14 -16 -36
-14 -29 3 4 10 7 12 10 4 2 -7 9 -9 15 -5z m-646 -19 c2 -18 0 -20 -7 -8 -12
18 -13 30 -2 30 4 0 9 -10 9 -22z m413 16 c0 -8 -19 -13 -24 -6 -3 5 1 9 9 9
8 0 15 -2 15 -3z m-363 -10 c-3 -3 -12 -4 -19 -1 -8 3 -5 6 6 6 11 1 17 -2 13
-5z m58 -9 c11 0 24 4 28 10 5 6 7 4 5 -5 -6 -19 -55 -21 -71 -2 -10 13 -9 14
3 7 8 -6 24 -10 35 -10z m100 -1 c11 0 27 3 36 7 10 5 16 3 16 -6 0 -8 -7 -11
-16 -7 -14 5 -14 4 -1 -14 14 -18 13 -18 -9 1 -13 11 -24 20 -25 19 -39 -22
-42 -22 -42 -4 0 10 5 16 11 12 5 -4 19 -7 30 -8z m212 -10 c0 -6 -9 -9 -19
-6 -27 7 -29 17 -4 17 13 0 23 -5 23 -11z m233 2 c0 -2 -7 -7 -16 -10 -8 -3
-12 -2 -9 4 6 10 25 14 25 6z m-697 -19 c-4 -6 0 -8 9 -4 12 4 14 1 11 -14 -5
-19 -6 -19 -20 1 -8 11 -19 17 -25 14 -6 -4 -8 -3 -5 3 3 5 13 10 21 10 8 0
12 -5 9 -10z m87 9 c0 -2 -7 -7 -16 -10 -8 -3 -12 -2 -9 4 6 10 25 14 25 6z
m36 -29 c1 -15 -1 -27 -5 -27 -5 0 -8 10 -7 23 1 12 -3 26 -9 30 -6 5 -5 7 4
5 8 -2 15 -16 17 -31z m401 16 c-14 -14 -19 -15 -29 -4 -11 10 -10 11 3 6 10
-4 20 -2 24 4 3 6 9 11 13 11 3 0 -1 -8 -11 -17z m125 -1 c-3 -10 -1 -13 6 -8
7 4 12 5 12 2 0 -15 -20 -14 -29 2 -7 14 -6 19 4 19 7 0 11 -7 7 -15z m-205 2
c-3 -3 -12 -4 -19 -1 -8 3 -5 6 6 6 11 1 17 -2 13 -5z m-245 -22 c3 -11 0 -19
-7 -19 -7 0 -10 8 -7 19 2 10 6 18 7 18 1 0 5 -8 7 -18z m22 2 c3 -8 2 -12 -4
-9 -6 3 -10 10 -10 16 0 14 7 11 14 -7z m106 12 c0 -2 -7 -7 -16 -10 -8 -3
-12 -2 -9 4 6 10 25 14 25 6z m255 -16 c4 -6 -1 -7 -11 -3 -10 4 -15 2 -11 -4
3 -5 0 -10 -8 -10 -11 0 -12 4 -4 14 14 15 26 17 34 3z m-630 -11 c4 -6 13 -8
19 -6 7 3 13 -1 13 -8 0 -10 -5 -11 -16 -5 -35 20 -46 30 -34 30 6 0 15 -5 18
-11z m380 3 c-12 -8 -13 -41 -3 -58 4 -6 1 -11 -6 -11 -8 0 -12 13 -10 36 2
44 1 41 17 41 8 0 8 -3 2 -8z m42 2 c-3 -3 -12 -4 -19 -1 -8 3 -5 6 6 6 11 1
17 -2 13 -5z m113 -4 c0 -5 -4 -10 -10 -10 -5 0 -10 5 -10 10 0 6 5 10 10 10
6 0 10 -4 10 -10z m-216 -19 c15 -16 15 -19 2 -24 -11 -4 -13 -1 -9 10 4 10 2
14 -4 10 -5 -3 -10 0 -10 8 0 19 0 19 21 -4z m-189 -2 c3 -3 -6 -5 -19 -5 -14
1 -28 4 -31 7 -3 3 6 5 19 5 14 -1 28 -4 31 -7z m289 3 c2 -4 -4 -8 -14 -8
-10 0 -16 4 -14 8 3 4 9 8 14 8 5 0 11 -4 14 -8z m32 -28 c0 -13 -2 -22 -5
-19 -3 3 -6 17 -7 31 0 13 2 22 5 19 3 -3 6 -17 7 -31z m87 13 c3 -7 -3 -13
-14 -13 -13 0 -15 3 -7 13 6 7 12 13 13 13 2 0 5 -6 8 -13z m-320 -14 c-3 -7
-6 -13 -8 -13 -2 0 -5 6 -8 13 -3 8 1 14 8 14 7 0 11 -6 8 -14z m361 2 c-4 -8
-11 -12 -16 -9 -6 4 -5 10 3 15 19 12 19 11 13 -6z m-446 -20 c-3 -3 -9 2 -12
12 -6 14 -5 15 5 6 7 -7 10 -15 7 -18z m19 3 c-3 -8 -6 -5 -6 6 -1 11 2 17 5
13 3 -3 4 -12 1 -19z m38 13 c3 -5 2 -12 -3 -15 -5 -3 -9 1 -9 9 0 17 3 19 12
6z m500 -11 c-1 -11 -5 -23 -10 -27 -4 -5 -4 -2 0 6 6 10 4 13 -7 9 -8 -4 -15
0 -15 8 0 7 4 11 8 8 4 -2 10 0 14 6 9 15 12 12 10 -10z m-691 2 c3 -5 -1 -9
-9 -9 -8 0 -15 4 -15 9 0 4 4 8 9 8 6 0 12 -4 15 -8z m56 -2 c0 -5 -4 -10 -10
-10 -5 0 -10 5 -10 10 0 6 5 10 10 10 6 0 10 -4 10 -10z m54 -6 c3 -8 2 -12
-4 -9 -6 3 -10 10 -10 16 0 14 7 11 14 -7z m176 6 c8 -5 11 -10 5 -10 -5 0
-17 5 -25 10 -8 5 -10 10 -5 10 6 0 17 -5 25 -10z m210 -2 c0 -4 -4 -8 -9 -8
-6 0 -12 4 -15 8 -3 5 1 9 9 9 8 0 15 -4 15 -9z m-564 -23 c-1 -8 -5 -17 -8
-21 -5 -4 -4 16 1 34 3 9 9 -1 7 -13z m39 -19 c1 -14 -1 -29 -5 -31 -4 -2 -6
8 -5 23 1 15 -3 31 -9 35 -7 6 -6 7 4 5 8 -3 15 -17 15 -32z m566 14 c-4 -8
-7 -27 -6 -42 1 -15 -1 -25 -5 -23 -4 2 -6 17 -5 32 1 15 -2 33 -6 38 -5 7 -1
11 11 11 13 0 16 -5 11 -16z m44 10 c3 -6 -1 -7 -9 -4 -18 7 -21 14 -7 14 6 0
13 -4 16 -10z m-460 -15 c11 0 24 4 28 10 5 6 7 4 5 -5 -6 -18 -75 -22 -75 -4
0 7 5 10 11 6 6 -4 20 -7 31 -7z m85 0 c0 -1 -6 -7 -13 -13 -10 -8 -13 -6 -13
7 0 11 6 17 13 14 7 -3 13 -6 13 -8z m-173 -17 c-3 -8 -6 -5 -6 6 -1 11 2 17
5 13 3 -3 4 -12 1 -19z m203 12 c0 -5 -4 -10 -10 -10 -5 0 -10 5 -10 10 0 6 5
10 10 10 6 0 10 -4 10 -10z m37 -4 c0 -8 -6 -12 -15 -9 -11 5 -11 7 0 14 7 5
13 9 14 9 0 0 1 -6 1 -14z m143 4 c0 -5 -4 -10 -10 -10 -5 0 -10 5 -10 10 0 6
5 10 10 10 6 0 10 -4 10 -10z m-400 -4 c0 -2 -8 -10 -17 -17 -16 -13 -17 -12
-4 4 13 16 21 21 21 13z m-119 -19 c-6 -8 -7 -18 -3 -22 4 -5 1 -5 -6 -1 -10
6 -10 11 -1 22 6 8 14 14 16 14 3 0 0 -6 -6 -13z m476 7 c-3 -3 -12 -4 -19 -1
-8 3 -5 6 6 6 11 1 17 -2 13 -5z m90 0 c-3 -3 -12 -4 -19 -1 -8 3 -5 6 6 6 11
1 17 -2 13 -5z m146 -7 c-4 -6 0 -8 9 -5 8 4 15 1 15 -7 0 -7 -6 -11 -12 -9
-7 3 -11 -7 -11 -27 1 -21 -4 -34 -14 -36 -9 -3 -11 -1 -5 4 12 9 14 62 3 79
-4 6 -1 11 7 11 8 0 11 -5 8 -10z m-740 -17 c3 -11 1 -18 -4 -14 -5 3 -9 12
-9 20 0 20 7 17 13 -6z m188 -3 c-10 -9 -11 -8 -5 6 3 10 9 15 12 12 3 -3 0
-11 -7 -18z m32 8 c-3 -9 -8 -14 -10 -11 -3 3 -2 9 2 15 9 16 15 13 8 -4z
m247 0 c0 -1 -8 -5 -18 -7 -11 -3 -19 0 -19 7 0 7 8 10 19 7 10 -2 18 -6 18
-7z m95 6 c3 -5 2 -12 -3 -15 -5 -3 -9 1 -9 9 0 17 3 19 12 6z m-586 -19 c7
-14 6 -19 -4 -19 -7 0 -11 7 -7 15 4 11 1 13 -8 7 -9 -5 -11 -4 -6 3 10 16 14
15 25 -6z m336 8 c3 -6 -1 -7 -9 -4 -18 7 -21 14 -7 14 6 0 13 -4 16 -10z
m197 -4 c-10 -17 -9 -50 3 -59 6 -5 4 -7 -5 -5 -18 6 -22 75 -4 75 7 0 10 -5
6 -11z m89 -3 c10 -12 11 -15 1 -9 -7 4 -20 2 -29 -6 -15 -12 -15 -11 -2 10
17 26 13 26 30 5z m-335 -17 c0 -14 -3 -23 -7 -20 -6 3 -6 22 0 42 3 10 7 -2
7 -22z m-215 -38 c-10 -11 -11 -9 -5 6 5 12 4 17 -3 13 -5 -3 -10 1 -10 9 0
13 2 13 16 0 12 -13 13 -18 2 -28z m75 23 c0 -12 -4 -17 -11 -12 -5 5 -18 7
-27 6 -10 -2 -18 1 -18 7 0 6 6 8 13 5 8 -3 20 -1 28 4 8 5 14 9 14 9 1 0 1
-9 1 -19z m101 13 c-3 -3 -12 -4 -19 -1 -8 3 -5 6 6 6 11 1 17 -2 13 -5z m141
-6 c-5 -13 -76 -19 -83 -8 -2 4 14 6 35 5 22 -1 40 2 40 7 0 4 3 8 6 8 3 0 4
-5 2 -12z m-461 -18 c-2 -11 -6 -22 -9 -26 -4 -3 -5 2 -3 13 2 10 4 21 4 26 1
4 3 7 6 7 3 0 4 -9 2 -20z m773 14 c0 -8 -19 -13 -24 -6 -3 5 1 9 9 9 8 0 15
-2 15 -3z m-723 -20 c-3 -3 -12 -4 -19 -1 -8 3 -5 6 6 6 11 1 17 -2 13 -5z
m240 0 c-3 -3 -12 -4 -19 -1 -8 3 -5 6 6 6 11 1 17 -2 13 -5z m236 -6 c-11
-19 -10 -72 2 -81 6 -5 4 -7 -5 -4 -24 6 -18 97 7 97 2 0 1 -6 -4 -12z m122 2
c-3 -5 -12 -10 -18 -10 -7 0 -6 4 3 10 19 12 23 12 15 0z m150 -8 c-3 -3 -11
0 -18 7 -9 10 -8 11 6 5 10 -3 15 -9 12 -12z m-398 2 c-3 -3 -12 -4 -19 -1 -8
3 -5 6 6 6 11 1 17 -2 13 -5z m-362 -33 c-1 -14 2 -31 6 -36 5 -7 0 -11 -14
-12 -12 -1 -17 1 -12 5 12 8 13 41 3 58 -4 6 -1 11 6 11 8 0 12 -11 11 -26z
m382 7 c-3 -8 -6 -5 -6 6 -1 11 2 17 5 13 3 -3 4 -12 1 -19z m-224 -1 c3 -8
-1 -14 -8 -14 -7 0 -11 6 -8 14 3 7 6 13 8 13 2 0 5 -6 8 -13z m450 -1 c4 -10
1 -13 -8 -9 -8 3 -12 9 -9 14 7 12 11 11 17 -5z m-320 -13 c-4 -10 -2 -14 4
-10 5 3 10 0 10 -8 0 -8 -5 -11 -11 -7 -15 9 -48 10 -66 1 -11 -5 -16 -2 -16
11 0 10 5 16 11 12 19 -12 54 -9 59 5 3 7 8 13 10 13 3 0 2 -7 -1 -17z m275 0
c-6 -7 -12 -13 -13 -13 -2 0 -5 6 -8 13 -3 7 3 13 14 13 13 0 15 -3 7 -13z
m241 -5 c-5 -10 -13 -18 -16 -18 -3 0 -3 3 0 7 4 3 3 11 -3 17 -6 8 -3 12 10
12 15 0 16 -4 9 -18z m-842 -23 c0 -6 -6 -12 -13 -12 -7 0 -11 4 -8 9 3 5 0
16 -8 25 -12 15 -11 15 8 3 11 -7 21 -18 21 -25z m450 13 c-3 -8 -6 -5 -6 6
-1 11 2 17 5 13 3 -3 4 -12 1 -19z m-332 3 c3 -5 2 -12 -3 -15 -5 -3 -9 1 -9
9 0 17 3 19 12 6z m605 -1 c0 -5 -4 -10 -10 -10 -5 0 -10 5 -10 10 0 6 5 10
10 10 6 0 10 -4 10 -10z m-553 -16 c-3 -3 -12 -4 -19 -1 -8 3 -5 6 6 6 11 1
17 -2 13 -5z m433 -4 c0 -5 -4 -10 -10 -10 -5 0 -10 5 -10 10 0 6 5 10 10 10
6 0 10 -4 10 -10z m72 -9 c-5 -14 -3 -14 11 -2 9 7 17 11 17 8 0 -2 -6 -10
-14 -16 -12 -10 -17 -8 -25 7 -7 14 -7 19 4 19 8 0 11 -7 7 -16z m91 2 c-3 -7
-6 -13 -8 -13 -2 0 -5 6 -8 13 -3 8 1 14 8 14 7 0 11 -6 8 -14z m-848 -3 c4
-6 11 -8 16 -5 5 4 9 1 9 -4 0 -15 -11 -13 -34 4 -11 8 -15 15 -9 15 7 0 15
-5 18 -10z m160 0 c-4 -6 -1 -19 6 -28 12 -16 12 -16 -5 0 -16 14 -15 38 0 38
3 0 2 -5 -1 -10z m63 -15 c-3 -3 -9 2 -12 12 -6 14 -5 15 5 6 7 -7 10 -15 7
-18z m241 11 c9 -10 8 -15 -2 -19 -8 -3 -13 3 -13 14 0 23 0 23 15 5z m359
-11 c-3 -3 -9 2 -12 12 -6 14 -5 15 5 6 7 -7 10 -15 7 -18z m-623 -32 c0 -15
-7 -28 -15 -31 -10 -2 -11 -1 -4 5 6 4 10 24 8 43 -2 19 1 29 5 22 4 -7 7 -25
6 -39z m325 37 c0 -5 -4 -10 -10 -10 -5 0 -10 5 -10 10 0 6 5 10 10 10 6 0 10
-4 10 -10z m355 0 c3 -5 1 -10 -4 -10 -6 0 -11 5 -11 10 0 6 2 10 4 10 3 0 8
-4 11 -10z m-202 -13 c3 -8 -1 -14 -8 -14 -7 0 -11 6 -8 14 3 7 6 13 8 13 2 0
5 -6 8 -13z m122 -8 c-4 -5 -12 -9 -18 -8 -9 0 -8 2 1 6 6 2 9 10 6 15 -4 7
-2 8 5 4 6 -4 9 -12 6 -17z m-726 -10 c-12 -24 -26 -31 -26 -14 0 8 5 11 10 8
6 -4 8 0 5 9 -4 8 0 15 7 15 10 0 11 -5 4 -18z m52 6 c-5 -5 -7 -18 -6 -27 2
-10 -1 -18 -7 -18 -5 0 -8 6 -5 13 2 6 1 19 -4 27 -5 11 -2 16 11 16 12 0 16
-4 11 -11z m483 7 c-5 -4 -10 -24 -9 -44 1 -20 -2 -35 -5 -33 -5 3 -6 71 -1
83 1 1 7 2 14 2 8 0 8 -3 1 -8z m31 -1 c3 -5 2 -12 -3 -15 -5 -3 -9 1 -9 9 0
17 3 19 12 6z m-358 -7 c-3 -3 -12 -4 -19 -1 -8 3 -5 6 6 6 11 1 17 -2 13 -5z
m73 -9 c0 -1 -6 -7 -13 -13 -10 -8 -13 -6 -13 7 0 11 6 17 13 14 7 -3 13 -6
13 -8z m67 0 c0 -8 -5 -11 -10 -8 -7 4 -8 -1 -3 -13 6 -15 5 -16 -5 -7 -10 10
-9 15 1 28 15 19 17 19 17 0z m-417 -18 c0 -2 -8 -3 -18 -3 -10 0 -19 6 -19
13 0 8 6 9 19 2 10 -5 18 -11 18 -12z m380 13 c0 -5 -4 -10 -10 -10 -5 0 -10
5 -10 10 0 6 5 10 10 10 6 0 10 -4 10 -10z m117 -12 c-3 -8 -6 -5 -6 6 -1 11
2 17 5 13 3 -3 4 -12 1 -19z m220 2 c-1 -11 -5 -20 -9 -20 -10 0 -10 4 -2 24
8 22 13 20 11 -4z m119 8 c3 -4 -2 -5 -13 -4 -10 2 -25 -2 -33 -8 -13 -9 -13
-9 -2 6 12 16 35 18 48 6z m-559 -14 c-3 -3 -12 -4 -19 -1 -8 3 -5 6 6 6 11 1
17 -2 13 -5z m365 -13 c-3 -8 -1 -12 5 -8 5 3 10 0 10 -8 0 -19 0 -19 -25 8
-20 21 -20 23 -3 23 12 0 17 -5 13 -15z m125 13 c-3 -3 -12 -4 -19 -1 -8 3 -5
6 6 6 11 1 17 -2 13 -5z m-750 -18 c0 -8 -8 -11 -21 -8 -19 5 -19 6 0 13 10 4
19 8 20 8 0 1 1 -5 1 -13z m298 5 c3 -5 2 -12 -3 -15 -5 -3 -9 1 -9 9 0 17 3
19 12 6z m537 1 c3 8 7 6 11 -6 4 -10 3 -15 -3 -11 -6 3 -10 0 -11 -7 0 -10
-2 -10 -6 0 -2 6 -8 10 -12 8 -4 -3 -8 1 -8 9 0 11 4 12 13 4 8 -7 13 -6 16 3z
m-582 -6 c0 -2 -8 -10 -17 -17 -16 -13 -17 -12 -4 4 13 16 21 21 21 13z m221
-19 c-10 -9 -11 -8 -5 6 3 10 9 15 12 12 3 -3 0 -11 -7 -18z m76 1 c-3 -8 -6
-5 -6 6 -1 11 2 17 5 13 3 -3 4 -12 1 -19z m188 -7 c-1 -14 2 -31 6 -36 5 -7
1 -11 -11 -11 -13 0 -16 5 -11 16 9 18 8 31 -1 46 -4 6 -1 11 6 11 8 0 12 -11
11 -26z m-860 9 c4 -6 -1 -7 -11 -3 -10 4 -15 2 -11 -4 3 -5 0 -10 -8 -10 -11
0 -12 4 -4 14 14 15 26 17 34 3z m228 -3 c3 -8 -1 -14 -8 -14 -7 0 -11 6 -8
14 3 7 6 13 8 13 2 0 5 -6 8 -13z m240 0 c3 -8 -1 -14 -8 -14 -7 0 -11 6 -8
14 3 7 6 13 8 13 2 0 5 -6 8 -13z m-283 -32 c0 -5 -5 -3 -10 5 -5 8 -10 20
-10 25 0 6 5 3 10 -5 5 -8 10 -19 10 -25z m-267 10 c-3 -9 -8 -14 -10 -11 -3
3 -2 9 2 15 9 16 15 13 8 -4z m155 -1 c12 0 25 -4 29 -8 4 -3 -4 -5 -18 -3
-13 3 -31 1 -39 -3 -11 -6 -16 -3 -16 10 0 10 5 16 11 12 5 -3 20 -7 33 -8z
m350 -9 c-3 -3 -9 2 -12 12 -6 14 -5 15 5 6 7 -7 10 -15 7 -18z m313 11 c-12
-14 -35 -16 -47 -3 -4 3 3 5 14 2 12 -2 24 0 27 6 4 5 9 9 12 9 3 0 0 -6 -6
-14z m86 -21 c0 -6 -6 -12 -13 -12 -7 0 -10 7 -6 15 3 9 1 13 -5 9 -5 -3 -10
0 -10 7 0 11 5 11 17 4 9 -6 17 -16 17 -23z m-520 10 c0 -8 -4 -12 -9 -9 -5 3
-6 10 -3 15 9 13 12 11 12 -6z m101 -5 c2 -10 0 -11 -5 -4 -4 5 -25 10 -45 9
-20 -1 -35 2 -33 5 8 13 79 4 83 -10z m240 0 c2 -9 0 -11 -5 -5 -10 13 -63 13
-83 0 -12 -7 -13 -6 -3 6 16 20 85 19 91 -1z m297 1 c3 -5 2 -12 -3 -15 -5 -3
-9 1 -9 9 0 17 3 19 12 6z m-992 -18 c-3 -7 -6 -13 -8 -13 -2 0 -5 6 -8 13 -3
8 1 14 8 14 7 0 11 -6 8 -14z m190 4 c-4 -6 0 -8 9 -5 8 4 15 1 15 -7 0 -8 -7
-11 -15 -7 -11 4 -13 1 -7 -9 5 -8 5 -11 -1 -6 -5 5 -9 12 -9 15 0 4 -3 12 -7
18 -4 6 -1 11 7 11 8 0 11 -5 8 -10z m119 -6 c-5 -14 -3 -14 11 -2 9 7 17 11
17 8 0 -2 -6 -10 -14 -16 -12 -10 -17 -8 -25 7 -7 14 -7 19 4 19 8 0 11 -7 7
-16z m241 2 c-3 -7 -6 -13 -8 -13 -2 0 -5 6 -8 13 -3 8 1 14 8 14 7 0 11 -6 8
-14z m20 -8 c-3 -9 -8 -14 -10 -11 -3 3 -2 9 2 15 9 16 15 13 8 -4z m222 -5
c-3 -4 0 -11 5 -13 6 -3 5 -4 -1 -3 -7 1 -13 10 -15 19 -1 9 2 15 7 11 5 -3 7
-9 4 -14z m175 16 c0 -2 -7 -7 -16 -10 -8 -3 -12 -2 -9 4 6 10 25 14 25 6z
m-874 -18 c5 -7 3 -8 -6 -3 -9 6 -12 4 -8 -7 4 -8 0 -15 -7 -15 -10 0 -11 5
-4 19 11 21 15 22 25 6z m71 -10 c-3 -8 -6 -5 -6 6 -1 11 2 17 5 13 3 -3 4
-12 1 -19z m108 -15 c0 -23 -6 -38 -15 -41 -9 -2 -11 0 -5 5 6 4 10 19 10 33
-1 23 3 40 9 40 1 0 2 -17 1 -37z m89 29 c3 -5 -1 -9 -9 -9 -8 0 -12 4 -9 9 3
4 7 8 9 8 2 0 6 -4 9 -8z m78 -10 c3 -11 0 -19 -7 -19 -7 0 -10 8 -7 19 2 10
6 18 7 18 1 0 5 -8 7 -18z m168 3 c11 -13 10 -14 -5 -9 -11 5 -16 4 -12 -3 3
-5 0 -10 -7 -10 -11 0 -12 4 -3 19 14 22 12 21 27 3z m157 -7 c-3 -8 -6 -5 -6
6 -1 11 2 17 5 13 3 -3 4 -12 1 -19z m-452 -16 c-3 -3 -11 0 -18 7 -9 10 -8
11 6 5 10 -3 15 -9 12 -12z m202 6 c-2 -7 -1 -20 4 -28 5 -11 2 -16 -11 -16
-12 0 -16 4 -11 11 5 5 7 18 6 28 -2 9 1 17 7 17 5 0 8 -6 5 -12z m445 5 c-9
-3 -10 -9 -3 -17 8 -9 6 -13 -4 -13 -8 0 -13 3 -10 5 3 3 1 10 -5 16 -6 8 -2
12 13 13 12 0 16 -1 9 -4z m-1065 -22 c-1 -14 -5 -17 -13 -11 -6 6 -15 6 -19
2 -5 -4 -5 -1 -1 6 4 7 12 10 17 7 5 -4 9 -1 9 4 0 6 2 11 4 11 3 0 4 -9 3
-19z m78 3 c11 1 25 4 31 8 6 4 11 1 11 -7 0 -8 -5 -11 -10 -8 -7 4 -8 -1 -4
-13 6 -16 5 -17 -5 -4 -13 16 -45 20 -63 8 -6 -4 -11 2 -11 12 0 13 5 16 16
11 8 -4 24 -7 35 -7z m382 10 c-3 -3 -12 -4 -19 -1 -8 3 -5 6 6 6 11 1 17 -2
13 -5z m328 -10 c11 0 27 3 36 7 10 5 16 3 16 -6 0 -8 -7 -11 -16 -7 -14 5
-14 4 -1 -14 14 -18 13 -18 -9 1 -13 11 -24 20 -25 19 -39 -22 -42 -22 -42 -4
0 10 5 16 11 12 5 -4 19 -7 30 -8z m-475 0 c0 -8 -19 -13 -24 -6 -3 5 1 9 9 9
8 0 15 -2 15 -3z m190 -4 c0 -5 -4 -10 -10 -10 -5 0 -10 5 -10 10 0 6 5 10 10
10 6 0 10 -4 10 -10z m405 0 c3 -6 -1 -7 -9 -4 -18 7 -21 14 -7 14 6 0 13 -4
16 -10z m31 -24 c-2 -38 -12 -39 -12 -1 0 18 3 32 7 30 3 -3 5 -15 5 -29z m91
12 c-3 -8 -6 -5 -6 6 -1 11 2 17 5 13 3 -3 4 -12 1 -19z m-814 -15 c-3 -7 -6
-13 -8 -13 -2 0 -5 6 -8 13 -3 8 1 14 8 14 7 0 11 -6 8 -14z m122 -1 c-3 -3
-11 0 -18 7 -9 10 -8 11 6 5 10 -3 15 -9 12 -12z m122 12 c-3 -3 -12 -4 -19
-1 -8 3 -5 6 6 6 11 1 17 -2 13 -5z m208 -4 c-3 -5 -12 -10 -18 -10 -7 0 -6 4
3 10 19 12 23 12 15 0z m-428 -15 c0 -8 -4 -12 -9 -9 -5 3 -6 10 -3 15 9 13
12 11 12 -6z m-217 -3 c0 -5 -7 -9 -15 -9 -8 0 -12 4 -9 9 3 4 9 8 15 8 5 0 9
-4 9 -8z m130 -2 c-8 -5 -19 -10 -25 -10 -5 0 -3 5 5 10 8 5 20 10 25 10 6 0
3 -5 -5 -10z m275 0 c3 -6 -1 -7 -9 -4 -18 7 -21 14 -7 14 6 0 13 -4 16 -10z
m37 -4 c-10 -17 -9 -50 3 -59 6 -5 4 -7 -5 -5 -18 6 -22 75 -4 75 7 0 10 -5 6
-11z m118 2 c0 -6 -3 -8 -7 -5 -3 4 -13 1 -22 -6 -14 -11 -14 -10 -2 6 15 20
31 22 31 5z m204 -16 c3 -5 -1 -9 -9 -9 -8 0 -11 5 -8 10 4 6 0 8 -9 5 -8 -4
-15 0 -15 7 0 10 5 11 18 4 10 -5 20 -13 23 -17z m66 18 c-8 -5 -19 -10 -25
-10 -5 0 -3 5 5 10 8 5 20 10 25 10 6 0 3 -5 -5 -10z m-874 -25 c1 -8 -1 -17
-5 -19 -4 -3 -7 6 -7 19 0 25 8 25 12 0z m364 21 c0 -2 -7 -9 -15 -16 -13 -11
-14 -10 -9 4 5 14 24 23 24 12z m323 -10 c4 -10 1 -13 -8 -9 -8 3 -12 9 -9 14
7 12 11 11 17 -5z m-728 -5 c-9 -8 -36 -10 -30 -2 2 4 11 8 20 8 8 0 13 -3 10
-6z m446 -11 c-5 -8 -6 -21 -4 -27 3 -7 0 -13 -5 -13 -6 0 -9 8 -7 18 1 9 -1
22 -6 27 -5 7 -1 11 11 11 13 0 16 -5 11 -16z m119 16 c0 -2 -7 -7 -16 -10 -8
-3 -12 -2 -9 4 6 10 25 14 25 6z m121 -16 c-5 -8 -6 -21 -4 -27 3 -7 0 -13 -5
-13 -6 0 -9 8 -7 18 1 9 -1 22 -6 27 -5 7 -1 11 11 11 13 0 16 -5 11 -16z
m303 -5 c12 -1 25 4 29 10 5 6 7 4 4 -5 -2 -10 -16 -15 -38 -15 -19 0 -39 -3
-45 -7 -6 -4 -11 -1 -11 7 0 8 5 11 10 8 7 -4 8 1 3 12 -6 16 -4 16 10 4 10
-8 27 -14 38 -14z m-857 -7 c-3 -8 -6 -5 -6 6 -1 11 2 17 5 13 3 -3 4 -12 1
-19z m169 3 c0 -16 -3 -17 -14 -9 -12 10 -7 19 13 28 1 0 1 -9 1 -19z m299 10
c3 -5 2 -12 -3 -15 -5 -3 -9 1 -9 9 0 17 3 19 12 6z m487 -6 c10 2 20 0 23 -5
3 -5 -3 -7 -12 -5 -10 1 -25 -1 -33 -6 -12 -5 -16 -2 -16 11 0 12 4 16 11 11
5 -5 18 -7 27 -6z m-1076 -4 c-6 -9 -46 -22 -46 -15 0 3 10 9 23 14 29 11 29
11 23 1z m224 -6 c0 -2 -6 -5 -13 -8 -8 -3 -14 1 -14 8 0 7 6 11 14 8 7 -3 13
-6 13 -8z m30 5 c0 -5 -4 -10 -10 -10 -5 0 -10 5 -10 10 0 6 5 10 10 10 6 0
10 -4 10 -10z m305 0 c-3 -5 -12 -10 -18 -10 -7 0 -6 4 3 10 19 12 23 12 15 0z
m-405 -14 c0 -2 -7 -7 -16 -10 -8 -3 -12 -2 -9 4 6 10 25 14 25 6z m202 -14
c-3 -10 -1 -13 6 -8 7 4 12 5 12 2 0 -15 -20 -14 -29 2 -7 14 -6 19 4 19 7 0
11 -7 7 -15z m391 5 c-4 -7 1 -8 12 -3 15 5 16 4 5 -9 -7 -9 -13 -14 -14 -13
-1 2 -7 10 -14 19 -9 13 -9 16 3 16 8 0 11 -5 8 -10z m120 0 c-4 -6 0 -8 10
-4 10 4 14 2 11 -7 -3 -7 -11 -13 -19 -13 -8 0 -13 3 -10 5 3 3 0 10 -5 17 -7
8 -5 12 5 12 8 0 11 -5 8 -10z m-866 -3 c-3 -3 -12 -4 -19 -1 -8 3 -5 6 6 6
11 1 17 -2 13 -5z m169 -13 c0 -16 -3 -17 -14 -9 -12 10 -7 19 13 28 1 0 1 -9
1 -19z m391 13 c-3 -3 -12 -4 -19 -1 -8 3 -5 6 6 6 11 1 17 -2 13 -5z m-447
-14 c0 -5 -4 -10 -10 -10 -5 0 -10 5 -10 10 0 6 5 10 10 10 6 0 10 -4 10 -10z
m505 1 c-3 -2 -16 -6 -28 -8 -15 -2 -18 0 -9 5 14 9 45 12 37 3z m352 -13 c-3
-8 -6 -5 -6 6 -1 11 2 17 5 13 3 -3 4 -12 1 -19z m-562 2 c4 -6 -1 -7 -11 -3
-10 4 -15 2 -11 -4 3 -5 0 -10 -8 -10 -11 0 -12 4 -4 14 14 15 26 17 34 3z
m258 -3 c3 -8 -1 -14 -8 -14 -7 0 -11 6 -8 14 3 7 6 13 8 13 2 0 5 -6 8 -13z
m-631 -12 c-12 -18 -8 -50 8 -63 13 -10 12 -11 -4 -5 -12 4 -17 3 -13 -4 3 -5
0 -10 -8 -10 -8 0 -11 5 -7 11 9 15 10 48 1 66 -5 11 -2 16 11 16 10 0 16 -5
12 -11z m473 -29 c1 -20 -1 -39 -5 -41 -3 -2 -6 13 -5 33 1 20 -4 41 -9 45 -7
5 -6 7 4 5 9 -3 15 -18 15 -42z m-565 19 c0 -1 -6 -7 -13 -13 -10 -8 -13 -6
-13 7 0 11 6 17 13 14 7 -3 13 -6 13 -8z m305 0 c17 0 34 4 38 10 5 6 7 4 5
-5 -6 -20 -75 -21 -91 -1 -10 12 -9 13 3 6 8 -6 29 -10 45 -10z m219 2 c4 4 4
-1 0 -11 -6 -15 -4 -17 7 -11 8 5 11 4 6 0 -14 -16 -36 -14 -30 3 4 9 2 13 -4
9 -5 -3 -10 0 -10 8 0 10 4 12 12 5 7 -5 15 -7 19 -3z m293 7 c-3 -3 -12 -4
-19 -1 -8 3 -5 6 6 6 11 1 17 -2 13 -5z m161 -7 c6 3 12 0 12 -5 0 -6 -8 -9
-17 -7 -10 1 -23 -1 -28 -6 -7 -5 -11 -1 -11 11 0 13 5 16 16 11 8 -5 21 -6
28 -4z m79 -9 c-3 -8 -6 -5 -6 6 -1 11 2 17 5 13 3 -3 4 -12 1 -19z m-1109 -9
c2 -9 1 -10 -5 -3 -4 6 -16 10 -26 8 -9 -1 -15 1 -12 6 8 13 38 5 43 -11z m82
11 c0 -5 -4 -10 -10 -10 -5 0 -10 5 -10 10 0 6 5 10 10 10 6 0 10 -4 10 -10z
m117 -12 c-3 -8 -6 -5 -6 6 -1 11 2 17 5 13 3 -3 4 -12 1 -19z m510 0 c-3 -8
-6 -5 -6 6 -1 11 2 17 5 13 3 -3 4 -12 1 -19z m113 12 c0 -5 -4 -10 -10 -10
-5 0 -10 5 -10 10 0 6 5 10 10 10 6 0 10 -4 10 -10z m138 -10 c2 -9 0 -11 -5
-5 -10 13 -43 13 -63 0 -12 -7 -13 -6 -3 7 16 19 65 17 71 -2z m-213 -8 c-3
-3 -11 0 -18 7 -9 10 -8 11 6 5 10 -3 15 -9 12 -12z m-281 -4 c-3 -4 -13 -12
-23 -17 -13 -7 -18 -6 -18 4 0 7 7 11 15 7 9 -3 13 -1 9 5 -3 5 0 10 8 10 8 0
12 -4 9 -9z m403 6 c-3 -3 -12 -4 -19 -1 -8 3 -5 6 6 6 11 1 17 -2 13 -5z
m-640 -26 c-3 -8 -6 -5 -6 6 -1 11 2 17 5 13 3 -3 4 -12 1 -19z m-236 -11
c-10 -9 -11 -8 -5 6 3 10 9 15 12 12 3 -3 0 -11 -7 -18z m42 9 c4 -10 1 -13
-8 -9 -8 3 -12 9 -9 14 7 12 11 11 17 -5z m497 4 c8 -5 11 -10 5 -10 -5 0 -17
5 -25 10 -8 5 -10 10 -5 10 6 0 17 -5 25 -10z m107 -12 c-3 -8 -6 -5 -6 6 -1
11 2 17 5 13 3 -3 4 -12 1 -19z m77 6 c3 -8 2 -12 -4 -9 -6 3 -10 10 -10 16 0
14 7 11 14 -7z m37 -1 c13 -17 13 -17 -6 -3 -11 8 -22 16 -24 17 -2 2 0 3 6 3
6 0 17 -8 24 -17z m104 -21 c0 -22 -6 -37 -15 -40 -9 -2 -11 0 -5 5 12 9 13
42 3 59 -4 6 -1 11 6 11 8 0 12 -13 11 -35z m96 15 c-10 -9 -11 -8 -5 6 3 10
9 15 12 12 3 -3 0 -11 -7 -18z m39 8 c11 -13 10 -14 -4 -9 -9 3 -16 10 -16 15
0 13 6 11 20 -6z m110 5 c0 -5 -4 -10 -10 -10 -5 0 -10 5 -10 10 0 6 5 10 10
10 6 0 10 -4 10 -10z m-805 -80 c0 -48 -4 -64 -15 -67 -9 -3 -11 -1 -5 4 6 4
10 33 10 63 0 30 -4 59 -10 63 -6 5 -4 7 5 4 11 -3 15 -19 15 -67z m204 53
c-12 -14 -12 -16 2 -11 9 4 16 1 16 -7 0 -9 -6 -11 -16 -6 -19 9 -52 8 -66 -1
-6 -4 -11 2 -11 12 0 10 4 16 8 14 20 -12 48 -11 59 2 6 8 14 14 16 14 3 0 -1
-8 -8 -17z m326 7 c3 -6 -1 -7 -9 -4 -18 7 -21 14 -7 14 6 0 13 -4 16 -10z
m231 -15 c1 -8 -5 -20 -14 -27 -16 -12 -16 -11 -2 6 13 18 13 19 -1 14 -9 -4
-16 -1 -16 7 0 8 7 11 15 7 11 -4 13 -1 7 9 -5 8 -4 11 0 6 5 -4 10 -14 11
-22z m-1108 6 c15 13 16 12 4 -3 -8 -9 -11 -21 -9 -25 3 -5 -3 -9 -13 -9 -11
0 -16 5 -12 15 3 8 1 12 -5 8 -5 -3 -10 0 -10 8 0 11 4 12 14 4 10 -9 18 -8
31 2z m152 -6 c0 -1 -8 -5 -18 -7 -11 -3 -19 0 -19 7 0 7 8 10 19 7 10 -2 18
-6 18 -7z m277 9 c-3 -3 -12 -4 -19 -1 -8 3 -5 6 6 6 11 1 17 -2 13 -5z m400
-9 c0 -8 -4 -12 -9 -9 -5 3 -6 10 -3 15 9 13 12 11 12 -6z m158 6 c3 -5 2 -12
-3 -15 -5 -3 -9 1 -9 9 0 17 3 19 12 6z m-671 -12 c3 -2 -10 -5 -29 -5 -18 0
-32 3 -30 7 5 7 52 6 59 -2z m350 2 c-7 -8 -54 -9 -49 -1 2 3 15 6 29 6 14 0
23 -2 20 -5z m111 -3 c3 -3 -8 -4 -25 -3 -16 1 -30 -2 -30 -8 0 -6 -3 -8 -6
-4 -3 3 -3 10 0 15 6 10 51 10 61 0z m90 -6 c-3 -3 -11 0 -18 7 -9 10 -8 11 6
5 10 -3 15 -9 12 -12z m262 -4 c-3 -8 -6 -5 -6 6 -1 11 2 17 5 13 3 -3 4 -12
1 -19z m30 0 c-3 -8 -6 -5 -6 6 -1 11 2 17 5 13 3 -3 4 -12 1 -19z m-1002 -7
c-9 -8 -36 -10 -30 -2 2 4 11 8 20 8 8 0 13 -3 10 -6z m242 3 c-3 -3 -12 -4
-19 -1 -8 3 -5 6 6 6 11 1 17 -2 13 -5z m-160 -36 c-3 -7 -5 -2 -5 12 0 14 2
19 5 13 2 -7 2 -19 0 -25z m28 22 c-4 -6 -1 -19 6 -28 12 -16 12 -16 -5 0 -16
14 -15 38 0 38 3 0 2 -5 -1 -10z m206 -7 c13 -16 12 -17 -3 -4 -17 13 -22 21
-14 21 2 0 10 -8 17 -17z m147 9 c10 7 14 9 10 4 -4 -5 -3 -16 2 -26 6 -12 5
-17 -5 -17 -8 0 -11 7 -7 16 5 13 3 14 -9 4 -12 -10 -15 -8 -16 10 0 12 1 16
4 9 4 -10 8 -10 21 0z m249 2 c-3 -3 -12 -4 -19 -1 -8 3 -5 6 6 6 11 1 17 -2
13 -5z m81 -8 c-7 -8 -15 -12 -17 -11 -5 6 10 25 20 25 5 0 4 -6 -3 -14z
m-894 -8 c-3 -4 -9 -8 -15 -8 -5 0 -9 4 -9 8 0 5 7 9 15 9 8 0 12 -4 9 -9z
m46 2 c-18 -12 -30 -13 -30 -2 0 4 10 9 22 9 18 2 20 0 8 -7z m617 -12 c-3 -8
-6 -5 -6 6 -1 11 2 17 5 13 3 -3 4 -12 1 -19z m33 -3 c14 -19 14 -19 -2 -6
-10 7 -18 18 -18 24 0 6 1 8 3 6 1 -2 9 -13 17 -24z m316 17 c-8 -7 -76 -11
-76 -4 0 4 18 8 40 8 22 1 38 -1 36 -4z m-912 -19 c4 -10 4 -14 0 -11 -3 4
-14 -2 -24 -14 -13 -17 -17 -18 -17 -5 0 9 5 13 10 10 6 -4 8 1 4 11 -4 10 -3
15 3 11 6 -3 10 -1 10 4 0 16 7 13 14 -6z m-282 0 c-6 -2 -9 -10 -6 -15 4 -7
2 -8 -5 -4 -13 9 -5 26 12 25 9 0 8 -2 -1 -6z m45 1 c-3 -3 -12 -4 -19 -1 -8
3 -5 6 6 6 11 1 17 -2 13 -5z m76 -11 c-4 -10 -2 -14 4 -10 5 3 10 -1 10 -9 0
-13 -2 -13 -15 0 -8 8 -11 19 -8 25 11 17 16 13 9 -6z m392 -1 c-3 -3 -11 0
-18 7 -9 10 -8 11 6 5 10 -3 15 -9 12 -12z m450 10 c-12 -8 -13 -41 -3 -58 4
-6 1 -11 -6 -11 -8 0 -12 13 -10 36 2 44 1 41 17 41 8 0 8 -3 2 -8z m39 -4
c-3 -5 0 -16 8 -25 12 -15 11 -15 -8 -3 -23 14 -28 37 -8 37 7 0 11 -4 8 -9z
m225 -9 c-12 -24 -26 -31 -26 -14 0 8 5 11 10 8 6 -4 8 0 5 9 -4 8 0 15 7 15
10 0 11 -5 4 -18z m-672 5 c-3 -3 -12 -4 -19 -1 -8 3 -5 6 6 6 11 1 17 -2 13
-5z m98 -10 c11 1 25 4 31 8 6 4 11 1 11 -7 0 -8 -5 -11 -10 -8 -7 4 -8 -1 -4
-13 6 -16 5 -17 -5 -4 -13 16 -45 20 -63 8 -6 -4 -11 2 -11 12 0 13 5 16 16
11 8 -4 24 -7 35 -7z m-610 -4 c3 -6 -1 -7 -9 -4 -18 7 -21 14 -7 14 6 0 13
-4 16 -10z m30 1 c3 -5 2 -12 -3 -15 -5 -3 -9 1 -9 9 0 17 3 19 12 6z m1022
-5 c0 -8 -6 -12 -15 -8 -11 4 -13 1 -7 -8 6 -9 4 -11 -5 -5 -10 6 -9 11 5 22
23 16 22 16 22 -1z m-1122 -6 c3 -6 -1 -7 -9 -4 -18 7 -21 14 -7 14 6 0 13 -4
16 -10z m60 -18 c-3 -3 -11 0 -18 7 -9 10 -8 11 6 5 10 -3 15 -9 12 -12z m278
5 c-4 -7 1 -8 13 -3 15 6 17 5 6 -5 -10 -11 -15 -10 -28 2 -13 14 -13 16 0 16
8 0 12 -5 9 -10z m122 -5 c-3 -3 -11 0 -18 7 -9 10 -8 11 6 5 10 -3 15 -9 12
-12z m358 5 c-4 -7 1 -8 13 -3 15 6 17 5 6 -5 -10 -11 -15 -10 -28 2 -13 14
-13 16 0 16 8 0 12 -5 9 -10z m444 -2 c0 -8 -4 -12 -9 -9 -5 3 -6 10 -3 15 9
13 12 11 12 -6z m-1136 -12 c13 -16 12 -17 -3 -4 -17 13 -22 21 -14 21 2 0 10
-8 17 -17z m77 -8 c-3 -3 -9 2 -12 12 -6 14 -5 15 5 6 7 -7 10 -15 7 -18z m36
10 c-4 -8 -11 -12 -16 -9 -6 4 -5 10 3 15 19 12 19 11 13 -6z m381 6 c3 -5 2
-12 -3 -15 -5 -3 -9 1 -9 9 0 17 3 19 12 6z m466 -33 c-10 -11 -11 -9 -5 6 5
12 4 17 -3 13 -5 -3 -10 1 -10 9 0 13 2 13 16 0 12 -13 13 -18 2 -28z m89 27
c0 -12 -19 -12 -23 0 -4 9 -1 12 9 8 7 -3 14 -7 14 -8z m23 0 c-3 -9 -8 -14
-10 -11 -3 3 -2 9 2 15 9 16 15 13 8 -4z m-733 -10 c0 -1 -8 -5 -18 -7 -11 -3
-19 0 -19 7 0 7 8 10 19 7 10 -2 18 -6 18 -7z m480 0 c0 -1 -8 -5 -18 -7 -11
-3 -19 0 -19 7 0 7 8 10 19 7 10 -2 18 -6 18 -7z m-600 -15 c0 -5 -4 -10 -10
-10 -5 0 -10 5 -10 10 0 6 5 10 10 10 6 0 10 -4 10 -10z m197 4 c-3 -3 -12 -4
-19 -1 -8 3 -5 6 6 6 11 1 17 -2 13 -5z m283 -4 c0 -5 -4 -10 -10 -10 -5 0
-10 5 -10 10 0 6 5 10 10 10 6 0 10 -4 10 -10z m-903 -17 c0 -8 -6 -9 -19 -2
-10 5 -18 11 -18 12 0 2 8 3 18 3 10 0 19 -6 19 -13z m119 -2 c0 -14 -4 -17
-16 -12 -8 5 -21 6 -27 4 -7 -3 -13 0 -13 6 0 5 9 8 20 6 11 -2 22 0 25 6 9
13 11 11 11 -10z m160 0 c0 -12 -4 -17 -11 -12 -5 5 -18 7 -27 6 -10 -2 -18 1
-18 7 0 6 6 8 13 5 8 -3 20 -1 28 4 8 5 14 9 14 9 1 0 1 -9 1 -19z m72 6 c6 3
12 0 12 -5 0 -6 -8 -9 -17 -7 -10 1 -23 -1 -28 -6 -7 -5 -11 -1 -11 11 0 13 5
16 16 11 8 -5 21 -6 28 -4z m129 -1 c0 -8 -6 -12 -15 -9 -11 5 -11 7 0 14 7 5
13 9 14 9 0 0 1 -6 1 -14z m221 -11 c-3 -3 -9 2 -12 12 -6 14 -5 15 5 6 7 -7
10 -15 7 -18z m49 19 c-3 -3 -12 -4 -19 -1 -8 3 -5 6 6 6 11 1 17 -2 13 -5z
m210 -8 c0 -8 -6 -12 -15 -9 -11 5 -11 7 0 14 7 5 13 9 14 9 0 0 1 -6 1 -14z
m100 8 c-3 -3 -12 -4 -19 -1 -8 3 -5 6 6 6 11 1 17 -2 13 -5z m179 -13 c0 -16
-3 -17 -14 -9 -12 10 -7 19 13 28 1 0 1 -9 1 -19z m66 4 c15 1 25 -2 23 -6 -3
-4 -13 -6 -23 -4 -9 1 -22 -1 -27 -6 -7 -5 -11 0 -12 14 -1 12 1 17 5 11 4 -6
19 -10 34 -9z m-727 -12 c-1 -10 3 -25 9 -33 9 -13 9 -13 -6 -2 -13 10 -16 26
-9 50 4 11 9 -2 6 -15z m103 -3 c2 -10 0 -11 -5 -4 -4 5 -25 10 -45 9 -20 -1
-35 2 -33 5 8 13 79 4 83 -10z m137 -32 c0 -29 4 -57 10 -61 6 -5 4 -7 -5 -4
-11 2 -15 18 -15 53 -1 45 2 64 9 64 1 0 2 -24 1 -52z m285 42 c0 -5 -4 -10
-10 -10 -5 0 -10 5 -10 10 0 6 5 10 10 10 6 0 10 -4 10 -10z m100 0 c0 -5 -4
-10 -10 -10 -5 0 -10 5 -10 10 0 6 5 10 10 10 6 0 10 -4 10 -10z m-782 -13 c8
-10 6 -13 -7 -13 -11 0 -17 6 -14 13 3 7 6 13 8 13 1 0 7 -6 13 -13z m480 0
c8 -10 6 -13 -7 -13 -11 0 -17 6 -14 13 3 7 6 13 8 13 1 0 7 -6 13 -13z m-715
-14 c-3 -7 -6 -13 -8 -13 -2 0 -5 6 -8 13 -3 8 1 14 8 14 7 0 11 -6 8 -14z
m594 11 c-3 -3 -12 -4 -19 -1 -8 3 -5 6 6 6 11 1 17 -2 13 -5z m288 -4 c3 -6
-1 -7 -9 -4 -18 7 -21 14 -7 14 6 0 13 -4 16 -10z m77 -12 c-7 -27 -17 -29
-17 -4 0 13 5 23 11 23 6 0 9 -9 6 -19z m-984 -13 c-3 -3 -9 2 -12 12 -6 14
-5 15 5 6 7 -7 10 -15 7 -18z m957 16 c3 -5 2 -12 -3 -15 -5 -3 -9 1 -9 9 0
17 3 19 12 6z m-1155 -10 c0 -4 -13 -7 -29 -7 -17 0 -28 2 -26 5 5 9 55 10 55
2z m60 5 c0 -2 -7 -7 -16 -10 -8 -3 -12 -2 -9 4 6 10 25 14 25 6z m113 -14
c14 -15 15 -19 2 -19 -8 0 -11 5 -8 10 4 6 0 8 -10 4 -11 -4 -14 -2 -10 9 7
18 7 18 26 -4z m83 -7 c1 -8 -2 -15 -6 -15 -5 0 -8 9 -7 20 1 21 10 18 13 -5z
m84 16 c0 -5 -8 -15 -17 -22 -16 -12 -17 -12 -6 2 7 9 10 19 6 22 -3 4 -1 7 5
7 7 0 12 -4 12 -9z m200 -1 c0 -5 -4 -10 -10 -10 -5 0 -10 5 -10 10 0 6 5 10
10 10 6 0 10 -4 10 -10z m59 -13 c0 -9 -2 -8 -6 1 -2 6 -10 9 -15 6 -7 -4 -8
-2 -4 5 9 13 26 5 25 -12z m132 6 c13 -16 12 -17 -3 -4 -17 13 -22 21 -14 21
2 0 10 -8 17 -17z m309 5 c0 -11 -12 -10 -30 2 -12 7 -10 9 8 7 12 0 22 -5 22
-9z m55 -25 c-1 -15 3 -32 9 -36 7 -6 6 -7 -4 -5 -9 3 -15 18 -15 41 -1 20 2
34 5 32 4 -2 6 -17 5 -32z m102 15 c-3 -8 -6 -5 -6 6 -1 11 2 17 5 13 3 -3 4
-12 1 -19z m89 -6 c-17 -16 -18 -16 -5 5 7 12 15 20 18 17 3 -2 -3 -12 -13
-22z m-1351 -2 c3 -5 1 -10 -4 -10 -6 0 -11 5 -11 10 0 6 2 10 4 10 3 0 8 -4
11 -10z m129 2 c-5 -4 -10 -24 -9 -44 1 -20 -2 -35 -5 -33 -5 3 -6 71 -1 83 1
1 7 2 14 2 8 0 8 -3 1 -8z m363 2 c-3 -3 -12 -4 -19 -1 -8 3 -5 6 6 6 11 1 17
-2 13 -5z m142 -8 c10 -12 8 -17 -7 -25 -14 -7 -19 -7 -19 4 0 8 7 11 16 7 14
-5 14 -3 2 11 -7 9 -11 17 -8 17 2 0 10 -6 16 -14z m374 -3 c-4 -10 -9 -11
-19 -2 -18 15 -18 15 5 15 11 0 17 -5 14 -13z m47 11 c0 -8 -19 -13 -24 -6 -3
5 1 9 9 9 8 0 15 -2 15 -3z m-873 -19 c0 -8 -5 -11 -10 -8 -6 4 -8 0 -4 -9 6
-17 -16 -19 -30 -3 -5 4 -2 5 6 0 11 -6 13 -4 8 9 -4 9 -3 14 2 11 5 -3 12 -1
16 5 9 14 12 13 12 -5z m307 -4 c2 -3 -6 -6 -18 -6 -13 0 -23 5 -23 11 0 11
34 7 41 -5z m251 3 c11 1 25 4 30 8 6 4 11 -2 11 -12 0 -15 -4 -17 -21 -8 -23
13 -23 13 -50 -10 -19 -16 -19 -16 -5 2 13 18 13 19 -1 14 -9 -4 -16 -1 -16 7
0 9 6 11 16 6 9 -4 25 -7 36 -7z m142 10 c-3 -3 -12 -4 -19 -1 -8 3 -5 6 6 6
11 1 17 -2 13 -5z m530 -16 c-3 -8 -6 -5 -6 6 -1 11 2 17 5 13 3 -3 4 -12 1
-19z m-1390 -10 c-3 -8 -6 -5 -6 6 -1 11 2 17 5 13 3 -3 4 -12 1 -19z m30 0
c-3 -8 -6 -5 -6 6 -1 11 2 17 5 13 3 -3 4 -12 1 -19z m317 14 c3 -5 -1 -9 -9
-9 -8 0 -12 4 -9 9 3 4 7 8 9 8 2 0 6 -4 9 -8z m151 -1 c3 -5 2 -12 -3 -15 -5
-3 -9 1 -9 9 0 17 3 19 12 6z m542 -5 c0 -8 -6 -12 -15 -9 -11 5 -11 7 0 14 7
5 13 9 14 9 0 0 1 -6 1 -14z m177 5 c-7 -8 -54 -9 -59 -2 -2 4 12 7 30 7 19 0
32 -3 29 -5z m90 1 c3 -5 -1 -9 -9 -9 -8 0 -12 4 -9 9 3 4 7 8 9 8 2 0 6 -4 9
-8z m-1051 -25 c-4 -6 0 -8 9 -5 8 4 15 0 15 -7 0 -10 -5 -11 -18 -4 -24 12
-31 26 -14 26 8 0 11 -5 8 -10z m201 5 c3 -5 -1 -9 -9 -9 -8 0 -12 4 -9 9 3 4
7 8 9 8 2 0 6 -4 9 -8z m373 2 c-3 -3 -12 -4 -19 -1 -8 3 -5 6 6 6 11 1 17 -2
13 -5z m153 -4 c0 -5 -4 -10 -10 -10 -5 0 -10 5 -10 10 0 6 5 10 10 10 6 0 10
-4 10 -10z m-673 -22 c-3 -8 -6 -5 -6 6 -1 11 2 17 5 13 3 -3 4 -12 1 -19z
m26 7 c-3 -9 -8 -14 -10 -11 -3 3 -2 9 2 15 9 16 15 13 8 -4z m185 -10 c-3 -3
-9 2 -12 12 -6 14 -5 15 5 6 7 -7 10 -15 7 -18z m32 10 c-7 -9 -15 -13 -19
-10 -3 3 1 10 9 15 21 14 24 12 10 -5z m550 0 c0 -1 -8 -5 -18 -7 -11 -3 -19
0 -19 7 0 7 8 10 19 7 10 -2 18 -6 18 -7z m167 -7 c-3 -8 -6 -5 -6 6 -1 11 2
17 5 13 3 -3 4 -12 1 -19z m26 7 c-3 -9 -8 -14 -10 -11 -3 3 -2 9 2 15 9 16
15 13 8 -4z m164 0 c0 -8 -4 -12 -9 -9 -5 3 -6 10 -3 15 9 13 12 11 12 -6z
m316 0 c-3 -9 -8 -14 -10 -11 -3 3 -2 9 2 15 9 16 15 13 8 -4z m271 -4 c15
-16 15 -19 2 -24 -11 -4 -13 -1 -9 10 4 10 2 14 -4 10 -5 -3 -10 0 -10 8 0 19
0 19 21 -4z m-2053 -14 c-10 -9 -11 -8 -5 6 3 10 9 15 12 12 3 -3 0 -11 -7
-18z m76 1 c-3 -8 -6 -5 -6 6 -1 11 2 17 5 13 3 -3 4 -12 1 -19z m123 12 c-8
-5 -19 -10 -25 -10 -5 0 -3 5 5 10 8 5 20 10 25 10 6 0 3 -5 -5 -10z m230 0
c0 -5 -4 -10 -10 -10 -5 0 -10 5 -10 10 0 6 5 10 10 10 6 0 10 -4 10 -10z
m250 0 c8 -5 11 -10 5 -10 -5 0 -17 5 -25 10 -8 5 -10 10 -5 10 6 0 17 -5 25
-10z m87 -4 c0 -8 -6 -12 -15 -8 -9 3 -13 1 -9 -5 3 -5 -1 -10 -10 -10 -12 0
-11 5 7 19 27 22 27 22 27 4z m623 4 c0 -5 -4 -10 -10 -10 -5 0 -10 5 -10 10
0 6 5 10 10 10 6 0 10 -4 10 -10z m275 0 c3 -5 1 -10 -4 -10 -6 0 -11 5 -11
10 0 6 2 10 4 10 3 0 8 -4 11 -10z m285 1 c0 -6 -4 -12 -8 -15 -5 -3 -9 1 -9
9 0 8 4 15 9 15 4 0 8 -4 8 -9z m201 -13 c11 -21 11 -22 -4 -9 -10 7 -17 17
-17 22 0 15 9 10 21 -13z m-1168 -1 c3 -8 -1 -14 -8 -14 -7 0 -11 6 -8 14 3 7
6 13 8 13 2 0 5 -6 8 -13z m1242 -8 c-3 -12 -7 -24 -10 -27 -3 -3 -3 5 -1 19
6 30 5 29 10 29 3 0 3 -10 1 -21z m-1592 -6 c-4 -10 -2 -14 4 -10 5 3 10 -1
10 -9 0 -13 -2 -13 -15 0 -8 8 -11 19 -8 25 11 17 16 13 9 -6z m388 -10 c-12
-20 -14 -14 -5 12 4 9 9 14 11 11 3 -2 0 -13 -6 -23z m89 23 c0 -2 -7 -7 -16
-10 -8 -3 -12 -2 -9 4 6 10 25 14 25 6z m42 -11 c-9 -14 -10 -47 -1 -66 5 -10
3 -16 -6 -16 -8 0 -11 7 -7 16 5 14 4 14 -14 1 -18 -14 -18 -13 1 9 11 13 18
26 17 30 -20 35 -20 37 -2 37 10 0 16 -5 12 -11z m445 9 c-3 -3 -12 -4 -19 -1
-8 3 -5 6 6 6 11 1 17 -2 13 -5z m514 -9 c-5 -5 -7 -18 -6 -27 2 -10 -1 -18
-7 -18 -5 0 -8 6 -5 13 2 6 1 19 -4 27 -5 11 -2 16 11 16 12 0 16 -4 11 -11z
m-1825 -14 c0 -12 -4 -17 -11 -12 -5 5 -18 7 -27 6 -10 -2 -18 1 -18 7 0 6 6
8 13 5 8 -3 20 -1 28 4 8 5 14 9 14 9 1 0 1 -9 1 -19z m59 4 c11 0 25 3 31 7
6 4 11 1 11 -6 0 -18 -69 -14 -75 4 -2 9 0 11 5 5 4 -6 17 -10 28 -10z m150 0
c11 0 24 4 28 10 5 6 7 4 5 -5 -6 -18 -75 -22 -75 -4 0 7 5 10 11 6 6 -4 20
-7 31 -7z m98 0 c9 2 17 -1 17 -7 0 -5 -6 -8 -12 -5 -7 2 -20 1 -28 -4 -11 -5
-16 -2 -16 11 0 12 4 16 11 11 5 -5 18 -7 28 -6z m712 0 c11 0 25 3 31 7 6 4
11 1 11 -6 0 -18 -69 -14 -75 4 -2 9 0 11 5 5 4 -6 17 -10 28 -10z m150 0 c11
0 24 4 28 10 5 6 7 4 5 -5 -6 -18 -75 -22 -75 -4 0 7 5 10 11 6 6 -4 20 -7 31
-7z m330 0 c11 0 25 3 31 7 6 4 11 1 11 -6 0 -8 -11 -12 -26 -11 -14 1 -31 -2
-36 -6 -7 -5 -11 0 -12 14 -1 12 1 17 5 12 4 -6 16 -10 27 -10z m-1838 -10 c0
-8 -4 -12 -9 -9 -5 3 -6 10 -3 15 9 13 12 11 12 -6z m101 -5 c2 -10 0 -11 -5
-4 -4 5 -25 10 -45 9 -20 -1 -35 2 -33 5 8 13 79 4 83 -10z m72 14 c0 -8 -19
-13 -24 -6 -3 5 1 9 9 9 8 0 15 -2 15 -3z m100 -9 c0 -2 -6 -5 -13 -8 -8 -3
-14 1 -14 8 0 7 6 11 14 8 7 -3 13 -6 13 -8z m187 -7 c-3 -8 -6 -5 -6 6 -1 11
2 17 5 13 3 -3 4 -12 1 -19z m30 0 c-3 -8 -6 -5 -6 6 -1 11 2 17 5 13 3 -3 4
-12 1 -19z m445 3 c11 -11 10 -12 -2 -5 -21 12 -80 12 -80 1 0 -6 -3 -8 -6 -4
-3 3 -4 10 -1 15 9 13 75 8 89 -7z m382 3 c3 -8 2 -12 -4 -9 -6 3 -10 10 -10
16 0 14 7 11 14 -7z m103 -6 c-3 -8 -6 -5 -6 6 -1 11 2 17 5 13 3 -3 4 -12 1
-19z m30 0 c-3 -8 -6 -5 -6 6 -1 11 2 17 5 13 3 -3 4 -12 1 -19z m198 11 c3
-3 -13 -5 -35 -4 -22 1 -40 -3 -40 -8 0 -6 -3 -8 -6 -4 -3 3 -4 10 -1 15 6 9
72 10 82 1z m30 2 c3 -5 2 -12 -3 -15 -5 -3 -9 1 -9 9 0 17 3 19 12 6z m222
-13 c-3 -8 -6 -5 -6 6 -1 11 2 17 5 13 3 -3 4 -12 1 -19z m117 13 c-7 -8 -74
-9 -69 -1 2 3 19 6 39 6 19 0 33 -3 30 -5z m292 -3 c4 -7 3 -8 -4 -4 -7 4 -12
2 -12 -5 0 -7 -3 -10 -6 -6 -6 5 3 27 11 27 2 0 7 -5 11 -12z m-2353 -25 c-3
-7 -6 -13 -8 -13 -2 0 -5 6 -8 13 -3 8 1 14 8 14 7 0 11 -6 8 -14z m238 0 c13
-16 12 -17 -3 -4 -10 7 -18 15 -18 17 0 8 8 3 21 -13z m579 12 c0 -1 -8 -10
-19 -19 -16 -15 -19 -15 -24 -2 -4 11 -1 13 10 9 10 -4 14 -2 10 4 -3 5 0 10
8 10 8 0 15 -1 15 -2z m233 -12 c-3 -7 -6 -13 -8 -13 -2 0 -5 6 -8 13 -3 8 1
14 8 14 7 0 11 -6 8 -14z m114 -2 c-10 -12 -9 -14 4 -9 9 4 16 1 16 -7 0 -8
-7 -11 -15 -7 -9 3 -13 1 -9 -5 3 -5 0 -10 -8 -10 -12 0 -12 3 -2 16 10 12 9
14 -4 9 -9 -4 -16 -1 -16 7 0 8 7 11 15 7 9 -3 13 -1 9 5 -3 5 0 10 8 10 12 0
12 -3 2 -16z m160 13 c-3 -3 -12 -4 -19 -1 -8 3 -5 6 6 6 11 1 17 -2 13 -5z
m450 0 c-3 -3 -12 -4 -19 -1 -8 3 -5 6 6 6 11 1 17 -2 13 -5z m351 -13 c-7 -9
-13 -17 -14 -19 -1 -1 -7 4 -14 13 -11 13 -10 14 5 9 11 -5 16 -4 12 3 -3 5 0
10 8 10 12 0 12 -3 3 -16z m154 -3 c-2 -10 -6 -18 -7 -18 -1 0 -5 8 -7 18 -3
11 0 19 7 19 7 0 10 -8 7 -19z m-2256 -3 c-1 -8 -5 -17 -8 -21 -5 -4 -4 16 1
34 3 9 9 -1 7 -13z m241 -7 c-3 -8 -6 -5 -6 6 -1 11 2 17 5 13 3 -3 4 -12 1
-19z m319 -4 c1 -9 0 -13 -4 -10 -3 4 -7 14 -8 22 -1 9 0 13 4 10 3 -4 7 -14
8 -22z m442 1 c-3 -3 -9 2 -12 12 -6 14 -5 15 5 6 7 -7 10 -15 7 -18z m495 10
c-3 -9 -8 -14 -10 -11 -3 3 -2 9 2 15 9 16 15 13 8 -4z m145 -16 c-3 -8 -7 -3
-11 10 -4 17 -3 21 5 13 5 -5 8 -16 6 -23z m184 3 c3 -10 0 -19 -6 -19 -6 0
-11 10 -11 23 0 25 10 23 17 -4z m146 20 c15 12 16 11 3 -4 -14 -19 -32 -15
-30 5 0 8 2 8 6 -1 4 -10 8 -10 21 0z m308 -7 c-1 -8 -5 -17 -8 -21 -5 -4 -4
16 1 34 3 9 9 -1 7 -13z m-2254 -13 c3 -11 0 -19 -7 -19 -7 0 -10 8 -7 19 2
10 6 18 7 18 1 0 5 -8 7 -18z m172 2 c3 -8 2 -12 -4 -9 -6 3 -10 10 -10 16 0
14 7 11 14 -7z m191 6 c3 -6 -1 -7 -9 -4 -18 7 -21 14 -7 14 6 0 13 -4 16 -10z
m54 -13 c0 -8 -2 -8 -6 1 -4 10 -8 10 -21 0 -15 -12 -16 -11 -3 4 14 19 32 15
30 -5z m93 5 c3 -11 0 -19 -7 -19 -7 0 -10 8 -7 19 2 10 6 18 7 18 1 0 5 -8 7
-18z m199 1 c13 -16 12 -17 -3 -4 -14 11 -18 11 -18 1 0 -8 -3 -11 -6 -7 -5 5
3 27 10 27 2 0 10 -8 17 -17z m84 -30 c0 -15 -7 -28 -15 -31 -9 -2 -11 0 -5 5
13 10 13 43 0 63 -7 12 -6 13 7 3 8 -7 14 -25 13 -40z m164 29 c7 -14 6 -19
-4 -19 -8 0 -11 7 -7 16 5 14 4 14 -14 1 -18 -14 -18 -14 -5 3 17 21 18 21 30
-1z m415 2 c3 -8 2 -12 -4 -9 -6 3 -10 10 -10 16 0 14 7 11 14 -7z m221 7 c3
-5 2 -12 -3 -15 -5 -3 -9 1 -9 9 0 17 3 19 12 6z m322 -15 c18 -21 18 -21 -3
-3 -16 13 -23 15 -26 6 -3 -9 -6 -9 -10 2 -9 23 19 19 39 -5z m78 -23 c0 -15
-7 -28 -15 -31 -9 -2 -11 0 -5 5 13 10 13 43 0 63 -7 12 -6 13 7 3 8 -7 14
-25 13 -40z m-1842 24 c3 -8 -1 -14 -8 -14 -7 0 -11 6 -8 14 3 7 6 13 8 13 2
0 5 -6 8 -13z m162 -14 c-1 -16 3 -32 9 -36 7 -5 5 -7 -4 -4 -14 3 -22 41 -13
60 7 13 10 7 8 -20z m1038 14 c3 -8 -1 -14 -8 -14 -7 0 -11 6 -8 14 3 7 6 13
8 13 2 0 5 -6 8 -13z m163 -21 c0 -19 -3 -33 -7 -31 -7 5 -4 65 4 65 1 0 3
-15 3 -34z m-1591 14 c-3 -5 -12 -10 -18 -10 -7 0 -6 4 3 10 19 12 23 12 15 0z
m155 0 c0 -5 -4 -10 -10 -10 -5 0 -10 5 -10 10 0 6 5 10 10 10 6 0 10 -4 10
-10z m205 0 c-3 -5 -12 -10 -18 -10 -7 0 -6 4 3 10 19 12 23 12 15 0z m752 -2
c-2 -7 -1 -20 4 -28 5 -11 2 -16 -11 -16 -12 0 -16 4 -11 11 5 5 7 18 6 28 -2
9 1 17 7 17 5 0 8 -6 5 -12z m243 2 c0 -5 -4 -10 -10 -10 -5 0 -10 5 -10 10 0
6 5 10 10 10 6 0 10 -4 10 -10z m155 -8 c-3 -3 -11 0 -18 7 -9 10 -8 11 6 5
10 -3 15 -9 12 -12z m600 0 c-3 -3 -11 0 -18 7 -9 10 -8 11 6 5 10 -3 15 -9
12 -12z m-2145 4 c0 -2 -7 -7 -16 -10 -8 -3 -12 -2 -9 4 6 10 25 14 25 6z
m357 -2 c-3 -3 -12 -4 -19 -1 -8 3 -5 6 6 6 11 1 17 -2 13 -5z m358 -10 c11 0
27 3 35 7 11 5 16 2 16 -11 0 -10 -5 -16 -11 -12 -18 12 -50 8 -63 -8 -10 -13
-11 -12 -5 4 4 12 3 17 -4 13 -5 -3 -10 0 -10 8 0 8 5 11 11 7 6 -4 20 -7 31
-8z m272 10 c-3 -3 -12 -4 -19 -1 -8 3 -5 6 6 6 11 1 17 -2 13 -5z m600 0 c-3
-3 -12 -4 -19 -1 -8 3 -5 6 6 6 11 1 17 -2 13 -5z m218 -10 c11 1 25 4 31 8 6
4 11 1 11 -7 0 -8 -5 -11 -10 -8 -7 4 -8 -1 -4 -13 6 -16 5 -17 -5 -4 -13 16
-45 20 -63 8 -6 -4 -11 2 -11 12 0 13 5 16 16 11 8 -4 24 -7 35 -7z m382 10
c-3 -3 -12 -4 -19 -1 -8 3 -5 6 6 6 11 1 17 -2 13 -5z m95 -9 c20 1 35 -2 33
-5 -8 -13 -79 -4 -83 10 -2 10 0 11 5 4 4 -5 25 -10 45 -9z m63 6 c3 -5 2 -12
-3 -15 -5 -3 -9 1 -9 9 0 17 3 19 12 6z m52 3 c-3 -3 -12 -4 -19 -1 -8 3 -5 6
6 6 11 1 17 -2 13 -5z m-2327 -14 c0 -5 -4 -10 -10 -10 -5 0 -10 5 -10 10 0 6
5 10 10 10 6 0 10 -4 10 -10z m237 -10 c-1 -11 -5 -20 -9 -20 -10 0 -10 4 -2
24 8 22 13 20 11 -4z m203 14 c0 -8 -19 -13 -24 -6 -3 5 1 9 9 9 8 0 15 -2 15
-3z m330 0 c0 -8 -19 -13 -24 -6 -3 5 1 9 9 9 8 0 15 -2 15 -3z m190 -4 c0 -5
-4 -10 -10 -10 -5 0 -10 5 -10 10 0 6 5 10 10 10 6 0 10 -4 10 -10z m477 -10
c-1 -11 -5 -20 -9 -20 -3 0 -6 9 -5 20 1 11 5 20 9 20 3 0 6 -9 5 -20z m197
11 c-7 -8 -54 -9 -59 -2 -2 4 12 7 30 7 19 0 32 -3 29 -5z m521 -46 c2 -26 1
-44 -2 -41 -3 3 -7 26 -8 51 -2 26 -1 44 2 41 3 -3 7 -26 8 -51z m245 20 c0
-5 -5 -3 -10 5 -5 8 -10 20 -10 25 0 6 5 3 10 -5 5 -8 10 -19 10 -25z m-2277
12 c3 -7 -3 -13 -14 -13 -13 0 -15 3 -7 13 6 7 12 13 13 13 2 0 5 -6 8 -13z
m1195 0 c8 -10 6 -13 -7 -13 -11 0 -17 6 -14 13 3 7 6 13 8 13 1 0 7 -6 13
-13z m-1361 -3 c-3 -3 -12 -4 -19 -1 -8 3 -5 6 6 6 11 1 17 -2 13 -5z m120
-19 c0 -8 -3 -13 -5 -10 -3 3 -10 0 -17 -5 -8 -7 -12 -5 -12 5 0 8 5 11 10 8
6 -4 8 0 4 10 -4 10 -2 14 7 11 7 -3 13 -11 13 -19z m87 10 c-4 -8 -11 -12
-16 -9 -6 4 -5 10 3 15 19 12 19 11 13 -6z m123 9 c-3 -3 -12 -4 -19 -1 -8 3
-5 6 6 6 11 1 17 -2 13 -5z m118 -4 c-3 -5 -12 -10 -18 -10 -7 0 -6 4 3 10 19
12 23 12 15 0z m111 -9 c-13 -12 -18 -13 -28 -2 -11 10 -9 11 6 5 12 -5 17 -4
13 3 -3 5 1 10 9 10 13 0 13 -2 0 -16z m279 1 c-3 -3 -11 0 -18 7 -9 10 -8 11
6 5 10 -3 15 -9 12 -12z m122 12 c-3 -3 -12 -4 -19 -1 -8 3 -5 6 6 6 11 1 17
-2 13 -5z m207 -9 c-4 -8 -11 -12 -16 -9 -6 4 -5 10 3 15 19 12 19 11 13 -6z
m76 5 c0 -5 -4 -10 -10 -10 -5 0 -10 5 -10 10 0 6 5 10 10 10 6 0 10 -4 10
-10z m80 -5 c0 -12 -19 -12 -23 0 -4 9 -1 12 9 8 7 -3 14 -7 14 -8z m83 -2
c-4 -10 -2 -14 4 -10 5 3 10 0 10 -8 0 -10 -4 -12 -12 -5 -7 5 -15 6 -19 2 -4
-4 -6 0 -4 8 2 12 17 29 25 30 1 0 -1 -7 -4 -17z m124 11 c-3 -3 -12 -4 -19
-1 -8 3 -5 6 6 6 11 1 17 -2 13 -5z m386 -7 c-4 -7 1 -8 13 -3 15 6 17 5 6 -5
-10 -11 -15 -10 -28 2 -13 14 -13 16 0 16 8 0 12 -5 9 -10z m122 -5 c-3 -3
-11 0 -18 7 -9 10 -8 11 6 5 10 -3 15 -9 12 -12z m358 1 c-3 -7 -6 -13 -8 -13
-2 0 -5 6 -8 13 -3 8 1 14 8 14 7 0 11 -6 8 -14z m-756 1 c-3 -3 -12 -4 -19
-1 -8 3 -5 6 6 6 11 1 17 -2 13 -5z m650 0 c-3 -3 -12 -4 -19 -1 -8 3 -5 6 6
6 11 1 17 -2 13 -5z m-2285 -18 c-10 -17 -9 -50 3 -59 6 -5 4 -7 -5 -5 -18 6
-22 75 -4 75 7 0 10 -5 6 -11z m455 0 c0 -8 -8 -11 -21 -8 -19 5 -19 6 0 13
10 4 19 8 20 8 0 1 1 -5 1 -13z m468 4 c3 -6 -1 -7 -9 -4 -18 7 -21 14 -7 14
6 0 13 -4 16 -10z m37 -4 c-10 -17 -9 -50 3 -59 6 -5 4 -7 -5 -5 -18 6 -22 75
-4 75 7 0 10 -5 6 -11z m118 2 c0 -6 -3 -8 -7 -5 -3 4 -13 1 -22 -6 -14 -11
-14 -10 -2 6 15 20 31 22 31 5z m435 -17 c-1 -14 2 -31 6 -36 5 -7 0 -11 -14
-12 -12 -1 -17 1 -12 5 12 8 13 41 3 58 -4 6 -1 11 6 11 8 0 12 -11 11 -26z
m525 14 c0 -1 -8 -5 -18 -7 -11 -3 -19 0 -19 7 0 7 8 10 19 7 10 -2 18 -6 18
-7z m-1327 -8 c3 -8 -1 -14 -8 -14 -7 0 -11 6 -8 14 3 7 6 13 8 13 2 0 5 -6 8
-13z m524 -2 c0 -8 -4 -15 -9 -15 -10 0 -11 14 -1 23 9 10 10 9 10 -8z m-1073
-7 c-11 -17 -12 -48 -3 -53 5 -4 9 -12 9 -18 -1 -17 -24 25 -25 43 0 8 -3 20
-7 25 -4 6 2 11 12 11 10 0 16 -4 14 -8z m41 2 c3 -6 -1 -7 -9 -4 -18 7 -21
14 -7 14 6 0 13 -4 16 -10z m162 4 c-3 -3 -12 -4 -19 -1 -8 3 -5 6 6 6 11 1
17 -2 13 -5z m190 -6 c-2 -7 -1 -20 4 -28 5 -11 2 -16 -11 -16 -12 0 -16 4
-11 11 5 5 7 18 6 28 -2 9 1 17 7 17 5 0 8 -6 5 -12z m324 -8 c-5 -8 -6 -21
-4 -27 3 -7 0 -13 -5 -13 -6 0 -9 8 -7 18 1 9 -1 22 -6 27 -5 7 -1 11 11 11
13 0 16 -5 11 -16z m240 0 c-5 -8 -6 -21 -4 -27 3 -7 0 -13 -5 -13 -6 0 -9 8
-7 18 1 9 -1 22 -6 27 -5 7 -1 11 11 11 13 0 16 -5 11 -16z m44 10 c3 -6 -1
-7 -9 -4 -18 7 -21 14 -7 14 6 0 13 -4 16 -10z m155 6 c0 -2 -7 -7 -16 -10 -8
-3 -12 -2 -9 4 6 10 25 14 25 6z m42 -11 c-4 -5 -7 -17 -7 -25 -1 -18 -24 -60
-25 -44 0 6 3 14 8 18 11 11 9 50 -3 58 -5 4 0 6 12 5 12 0 19 -6 15 -12z
m240 0 c-12 -18 -8 -50 8 -63 13 -10 12 -11 -4 -5 -12 4 -17 3 -13 -4 3 -5 0
-10 -8 -10 -8 0 -11 5 -7 11 9 15 10 48 1 66 -5 11 -2 16 11 16 10 0 16 -5 12
-11z m318 5 c0 -5 -4 -10 -10 -10 -5 0 -10 5 -10 10 0 6 5 10 10 10 6 0 10 -4
10 -10z m197 4 c-3 -3 -12 -4 -19 -1 -8 3 -5 6 6 6 11 1 17 -2 13 -5z m207 -2
c-6 -4 -10 -23 -8 -42 2 -19 -1 -29 -5 -22 -4 7 -7 25 -5 40 3 34 2 32 17 32
8 0 9 -3 1 -8z m73 -4 c-2 -7 -1 -20 4 -28 5 -11 2 -16 -11 -16 -12 0 -16 4
-11 11 5 5 7 18 6 28 -2 9 1 17 7 17 5 0 8 -6 5 -12z m-2347 -13 c-6 -8 -9
-18 -6 -23 3 -5 -1 -9 -9 -9 -17 0 -15 18 5 34 20 17 25 16 10 -2z m460 0 c0
-2 -6 -5 -13 -8 -8 -3 -14 1 -14 8 0 7 6 11 14 8 7 -3 13 -6 13 -8z m525 6 c3
-5 2 -12 -3 -15 -5 -3 -9 1 -9 9 0 17 3 19 12 6z m442 -26 c0 -6 -6 -12 -13
-12 -7 0 -11 4 -8 9 3 5 0 16 -8 25 -12 15 -11 15 8 3 11 -7 21 -18 21 -25z
m290 29 c-3 -3 -12 -4 -19 -1 -8 3 -5 6 6 6 11 1 17 -2 13 -5z m210 -8 c0 -8
-6 -12 -15 -9 -11 5 -11 7 0 14 7 5 13 9 14 9 0 0 1 -6 1 -14z m270 8 c-3 -3
-12 -4 -19 -1 -8 3 -5 6 6 6 11 1 17 -2 13 -5z m210 -9 c0 -8 -5 -11 -10 -8
-6 4 -8 0 -5 -9 4 -8 0 -15 -8 -15 -13 0 -11 9 9 35 12 15 14 15 14 -3z
m-2092 -6 c3 -3 -13 -5 -35 -4 -22 1 -40 -3 -40 -8 0 -6 -3 -8 -6 -4 -3 3 -4
10 -1 15 6 9 72 10 82 1z m30 2 c3 -5 2 -12 -3 -15 -5 -3 -9 1 -9 9 0 17 3 19
12 6z m241 -27 c0 -13 -2 -22 -5 -19 -3 3 -6 17 -7 31 0 13 2 22 5 19 3 -3 6
-17 7 -31z m124 26 c0 -5 -4 -10 -10 -10 -5 0 -10 5 -10 10 0 6 5 10 10 10 6
0 10 -4 10 -10z m245 0 c-3 -5 -12 -10 -18 -10 -7 0 -6 4 3 10 19 12 23 12 15
0z m715 0 c0 -5 -4 -10 -10 -10 -5 0 -10 5 -10 10 0 6 5 10 10 10 6 0 10 -4
10 -10z m116 -24 c0 -19 -3 -33 -7 -31 -7 5 -4 65 4 65 1 0 3 -15 3 -34z m239
17 c-1 -10 3 -25 9 -33 9 -13 9 -13 -6 -2 -13 10 -16 26 -9 50 4 11 9 -2 6
-15z m103 -3 c2 -10 0 -11 -5 -4 -4 5 -25 10 -45 9 -20 -1 -35 2 -33 5 8 13
79 4 83 -10z m-260 -3 c8 -10 6 -13 -7 -13 -11 0 -17 6 -14 13 3 7 6 13 8 13
1 0 7 -6 13 -13z m-1685 -10 c-4 -7 1 -8 13 -3 15 6 17 5 6 -5 -10 -11 -15
-10 -28 2 -13 14 -13 16 0 16 8 0 12 -5 9 -10z m454 7 c-3 -3 -12 -4 -19 -1
-8 3 -5 6 6 6 11 1 17 -2 13 -5z m116 -11 c-3 -7 -6 -13 -8 -13 -2 0 -5 6 -8
13 -3 8 1 14 8 14 7 0 11 -6 8 -14z m390 4 c-4 -7 1 -8 13 -3 15 6 17 5 6 -5
-10 -11 -15 -10 -28 2 -13 14 -13 16 0 16 8 0 12 -5 9 -10z m83 -6 c-13 -12
-18 -13 -28 -2 -11 10 -9 11 6 5 12 -5 17 -4 13 3 -3 5 1 10 9 10 13 0 13 -2
0 -16z m401 13 c-3 -3 -12 -4 -19 -1 -8 3 -5 6 6 6 11 1 17 -2 13 -5z m120 0
c-3 -3 -12 -4 -19 -1 -8 3 -5 6 6 6 11 1 17 -2 13 -5z m450 0 c-3 -3 -12 -4
-19 -1 -8 3 -5 6 6 6 11 1 17 -2 13 -5z m-1826 -21 c8 -9 9 -14 2 -10 -6 4
-13 1 -16 -5 -3 -7 -4 -3 -4 10 1 26 1 26 18 5z m586 11 c-3 -3 -12 -4 -19 -1
-8 3 -5 6 6 6 11 1 17 -2 13 -5z m-1009 -18 c3 -4 -5 -5 -20 -2 -15 2 -28 0
-31 -7 -2 -6 -6 -4 -9 5 -5 12 0 15 23 13 17 -1 33 -6 37 -9z m117 5 c3 -5 2
-12 -3 -15 -5 -3 -9 1 -9 9 0 17 3 19 12 6z m170 -1 c-3 -5 -12 -10 -18 -10
-7 0 -6 4 3 10 19 12 23 12 15 0z m195 0 c0 -5 -4 -10 -10 -10 -5 0 -10 5 -10
10 0 6 5 10 10 10 6 0 10 -4 10 -10z m238 -11 c9 -13 9 -16 -3 -16 -8 0 -11 5
-8 10 4 7 -1 8 -12 3 -15 -5 -16 -4 -5 9 7 9 13 14 14 13 1 -2 7 -10 14 -19z
m237 3 c-3 -3 -11 0 -18 7 -9 10 -8 11 6 5 10 -3 15 -9 12 -12z m120 -3 c-4
-5 -12 -9 -18 -8 -9 0 -8 2 1 6 6 2 9 10 6 15 -4 7 -2 8 5 4 6 -4 9 -12 6 -17z
m925 11 c0 -5 -4 -10 -10 -10 -5 0 -10 5 -10 10 0 6 5 10 10 10 6 0 10 -4 10
-10z m59 -13 c0 -9 -2 -8 -6 1 -2 6 -10 9 -15 6 -7 -4 -8 -2 -4 5 9 13 26 5
25 -12z m132 6 c13 -16 12 -17 -3 -4 -17 13 -22 21 -14 21 2 0 10 -8 17 -17z
m103 1 c3 -8 2 -12 -4 -9 -6 3 -10 10 -10 16 0 14 7 11 14 -7z m57 -7 c-10 -9
-11 -8 -5 6 3 10 9 15 12 12 3 -3 0 -11 -7 -18z m-1472 0 c8 -10 7 -14 -4 -14
-8 0 -11 5 -8 10 4 6 -1 8 -11 4 -10 -4 -15 -3 -11 3 8 14 20 12 34 -3z m282
-4 c13 -16 12 -17 -3 -4 -17 13 -22 21 -14 21 2 0 10 -8 17 -17z m557 4 c8
-10 6 -13 -7 -13 -11 0 -17 6 -14 13 3 7 6 13 8 13 1 0 7 -6 13 -13z m-1637
-17 c-5 -8 -6 -21 -4 -27 3 -7 0 -13 -5 -13 -6 0 -9 8 -7 18 1 9 -1 22 -6 27
-5 7 -1 11 11 11 13 0 16 -5 11 -16z m480 0 c-9 -18 -8 -51 1 -66 4 -6 1 -11
-7 -11 -8 0 -11 5 -8 10 4 7 -1 8 -13 4 -16 -6 -17 -5 -4 5 16 13 20 45 8 63
-4 6 2 11 12 11 13 0 16 -5 11 -16z m358 3 c-12 -14 -12 -16 2 -11 9 4 16 1
16 -7 0 -11 -5 -11 -19 -4 -15 8 -17 13 -7 25 6 8 14 14 16 14 3 0 -1 -8 -8
-17z m484 0 c-4 -10 -2 -14 4 -10 5 3 10 0 10 -7 0 -11 -4 -12 -18 -3 -13 8
-15 15 -7 24 14 18 19 16 11 -4z m146 3 c10 -12 8 -17 -7 -25 -14 -7 -19 -7
-19 4 0 8 7 11 16 7 14 -5 14 -3 2 11 -7 9 -11 17 -8 17 2 0 10 -6 16 -14z
m480 0 c10 -12 8 -17 -7 -25 -14 -7 -19 -7 -19 4 0 8 7 11 16 7 14 -5 14 -3 2
11 -7 9 -11 17 -8 17 2 0 10 -6 16 -14z m411 -2 c-6 -6 -8 -14 -5 -17 3 -4 2
-5 -2 -2 -3 3 -13 -1 -22 -8 -14 -10 -14 -10 -3 5 8 9 11 21 9 25 -3 5 3 9 13
9 13 0 16 -4 10 -12z m-2303 -16 c-3 -8 -6 -5 -6 6 -1 11 2 17 5 13 3 -3 4
-12 1 -19z m186 7 c9 2 17 -1 17 -7 0 -5 -6 -8 -12 -5 -7 2 -20 1 -28 -4 -11
-5 -16 -2 -16 11 0 12 4 16 11 11 5 -5 18 -7 28 -6z m54 1 c0 -8 -6 -12 -15
-9 -11 5 -11 7 0 14 7 5 13 9 14 9 0 0 1 -6 1 -14z m281 2 c-5 -13 -56 -19
-63 -8 -3 4 9 6 25 5 17 -1 30 1 30 6 0 5 3 9 6 9 3 0 4 -5 2 -12z m158 -7 c0
-12 -4 -17 -11 -12 -5 5 -18 7 -27 6 -10 -2 -18 1 -18 7 0 6 6 8 13 5 8 -3 20
-1 28 4 8 5 14 9 14 9 1 0 1 -9 1 -19z m281 7 c0 -7 -11 -13 -24 -13 -29 0
-29 3 0 15 12 5 22 9 23 9 0 1 1 -5 1 -11z m270 -10 c-3 -8 -6 -5 -6 6 -1 11
2 17 5 13 3 -3 4 -12 1 -19z m480 8 c18 1 35 -1 37 -5 2 -3 -14 -6 -37 -6 -27
0 -42 5 -44 15 -3 10 -2 11 4 4 4 -6 23 -10 40 -8z m288 -2 c11 1 25 4 30 8 6
4 11 -2 11 -12 0 -15 -4 -17 -21 -8 -23 13 -23 13 -50 -10 -19 -16 -19 -16 -5
2 13 18 13 19 -1 14 -9 -4 -16 -1 -16 7 0 9 6 11 16 6 9 -4 25 -7 36 -7z m142
10 c-3 -3 -12 -4 -19 -1 -8 3 -5 6 6 6 11 1 17 -2 13 -5z m40 -9 c0 -8 -4 -12
-9 -9 -5 3 -6 10 -3 15 9 13 12 11 12 -6z m-2287 -10 c0 -2 -6 -5 -13 -8 -8
-3 -14 1 -14 8 0 7 6 11 14 8 7 -3 13 -6 13 -8z m205 4 c3 -3 -6 -5 -19 -5
-14 1 -28 4 -31 7 -3 3 6 5 19 5 14 -1 28 -4 31 -7z m252 -11 c-3 -8 -6 -5 -6
6 -1 11 2 17 5 13 3 -3 4 -12 1 -19z m550 7 c0 -8 -4 -12 -9 -9 -5 3 -6 10 -3
15 9 13 12 11 12 -6z m157 7 c3 -5 -1 -9 -9 -9 -8 0 -12 4 -9 9 3 4 7 8 9 8 2
0 6 -4 9 -8z m120 -1 c-7 -8 -74 -9 -69 -1 2 3 19 6 39 6 19 0 33 -3 30 -5z
m317 -18 c-12 -20 -14 -14 -5 12 4 9 9 14 11 11 3 -2 0 -13 -6 -23z m284 18
c3 -5 2 -12 -3 -15 -5 -3 -9 1 -9 9 0 17 3 19 12 6z m439 -22 c-3 -5 -11 -9
-17 -8 -8 0 -8 2 1 6 10 4 10 8 0 21 -12 15 -11 16 4 3 10 -7 15 -17 12 -22z
m98 -1 c-8 -8 -9 -4 -5 13 4 13 8 18 11 10 2 -7 -1 -18 -6 -23z m-1775 0 c-2
-7 3 -19 12 -26 14 -11 13 -12 -5 -3 -15 7 -25 7 -35 -2 -7 -7 -6 -3 4 9 9 11
14 24 10 27 -3 4 -1 7 6 7 7 0 11 -6 8 -12z m160 -6 c0 -10 -6 -19 -13 -19 -9
0 -9 5 -1 19 7 10 13 18 14 18 1 0 1 -8 0 -18z m83 3 c0 -1 -8 -9 -18 -18 -15
-14 -19 -15 -19 -2 0 8 5 11 10 8 6 -4 8 0 4 10 -4 11 -2 14 9 10 7 -3 14 -6
14 -8z m164 7 c3 -5 -1 -9 -9 -9 -8 0 -12 4 -9 9 3 4 7 8 9 8 2 0 6 -4 9 -8z
m481 -2 c-3 -5 -12 -10 -18 -10 -7 0 -6 4 3 10 19 12 23 12 15 0z m118 -7 c-3
-7 -6 -13 -8 -13 -2 0 -5 6 -8 13 -3 8 1 14 8 14 7 0 11 -6 8 -14z m72 -40 c0
-23 -6 -38 -15 -41 -9 -2 -11 0 -5 5 13 10 13 63 0 83 -7 12 -6 13 6 3 9 -8
15 -27 14 -50z m488 40 c-3 -7 -6 -13 -8 -13 -2 0 -5 6 -8 13 -3 8 1 14 8 14
7 0 11 -6 8 -14z m-2009 -23 c-6 -6 -10 -3 -10 10 0 13 4 16 10 10 7 -7 7 -13
0 -20z m23 -2 c-3 -7 -5 -2 -5 12 0 14 2 19 5 13 2 -7 2 -19 0 -25z m200 10
c-3 -8 -6 -5 -6 6 -1 11 2 17 5 13 3 -3 4 -12 1 -19z m533 0 c0 -6 -6 -5 -15
2 -8 7 -15 14 -15 16 0 2 7 1 15 -2 8 -4 15 -11 15 -16z m23 7 c-3 -9 -8 -14
-10 -11 -3 3 -2 9 2 15 9 16 15 13 8 -4z m185 -10 c-3 -3 -9 2 -12 12 -6 14
-5 15 5 6 7 -7 10 -15 7 -18z m19 3 c-3 -8 -6 -5 -6 6 -1 11 2 17 5 13 3 -3 4
-12 1 -19z m30 -10 c-3 -7 -5 -2 -5 12 0 14 2 19 5 13 2 -7 2 -19 0 -25z m29
12 c0 -12 -4 -16 -9 -11 -5 5 -6 14 -3 20 10 15 12 14 12 -9z m182 -5 c-3 -3
-9 2 -12 12 -6 14 -5 15 5 6 7 -7 10 -15 7 -18z m36 10 c-4 -8 -11 -12 -16 -9
-6 4 -5 10 3 15 19 12 19 11 13 -6z m444 -10 c-3 -3 -9 2 -12 12 -6 14 -5 15
5 6 7 -7 10 -15 7 -18z m32 10 c-7 -9 -15 -13 -19 -10 -3 3 1 10 9 15 21 14
24 12 10 -5z m407 0 c0 -8 -5 -11 -10 -8 -7 4 -8 -1 -3 -13 6 -15 5 -16 -5 -7
-10 10 -9 15 1 28 15 19 17 19 17 0z m-2217 -5 c0 -5 -4 -10 -10 -10 -5 0 -10
5 -10 10 0 6 5 10 10 10 6 0 10 -4 10 -10z m164 -18 c3 -5 -1 -9 -9 -9 -8 0
-11 5 -8 10 4 6 0 8 -9 5 -8 -4 -15 0 -15 7 0 10 5 11 18 4 10 -5 20 -13 23
-17z m76 24 c0 -2 -7 -7 -16 -10 -8 -3 -12 -2 -9 4 6 10 25 14 25 6z m217 -18
c-3 -8 -6 -5 -6 6 -1 11 2 17 5 13 3 -3 4 -12 1 -19z m143 7 c0 -1 -8 -5 -18
-7 -11 -3 -19 0 -19 7 0 7 8 10 19 7 10 -2 18 -6 18 -7z m360 5 c0 -5 -4 -10
-10 -10 -5 0 -10 5 -10 10 0 6 5 10 10 10 6 0 10 -4 10 -10z m54 -6 c3 -8 2
-12 -4 -9 -6 3 -10 10 -10 16 0 14 7 11 14 -7z m186 6 c0 -5 -4 -10 -10 -10
-5 0 -10 5 -10 10 0 6 5 10 10 10 6 0 10 -4 10 -10z m217 -4 c0 -8 -6 -12 -15
-9 -11 5 -11 7 0 14 7 5 13 9 14 9 0 0 1 -6 1 -14z m270 -8 c-3 -8 -6 -5 -6 6
-1 11 2 17 5 13 3 -3 4 -12 1 -19z m243 12 c8 -5 11 -10 5 -10 -5 0 -17 5 -25
10 -8 5 -10 10 -5 10 6 0 17 -5 25 -10z m87 -4 c0 -8 -6 -12 -15 -8 -9 3 -13
1 -9 -5 3 -5 -1 -10 -10 -10 -12 0 -11 5 7 19 27 22 27 22 27 4z m-2098 -9 c8
-10 7 -14 -4 -14 -8 0 -11 5 -8 10 4 6 -1 8 -11 4 -10 -4 -15 -3 -11 3 8 14
20 12 34 -3z m40 -14 c-12 -14 -12 -16 2 -11 9 4 16 1 16 -7 0 -11 -5 -11 -19
-4 -15 8 -17 13 -7 25 6 8 14 14 16 14 3 0 -1 -8 -8 -17z m318 11 c-3 -3 -12
-4 -19 -1 -8 3 -5 6 6 6 11 1 17 -2 13 -5z m1243 -4 c0 -5 -4 -10 -10 -10 -5
0 -10 5 -10 10 0 6 5 10 10 10 6 0 10 -4 10 -10z m363 -7 c-4 -10 -2 -14 4
-10 5 3 10 -1 10 -9 0 -13 -2 -13 -15 0 -8 8 -11 19 -8 25 11 17 16 13 9 -6z
m240 0 c-4 -10 -2 -14 4 -10 5 3 10 -1 10 -9 0 -13 -2 -13 -15 0 -8 8 -11 19
-8 25 11 17 16 13 9 -6z m-1513 -7 c-7 -7 -13 -7 -20 0 -6 6 -3 10 10 10 13 0
16 -4 10 -10z m206 -5 c0 -14 -4 -17 -16 -12 -8 5 -21 6 -27 4 -7 -3 -13 0
-13 6 0 5 9 8 20 6 11 -2 22 0 25 6 9 13 11 11 11 -10z m59 4 c11 0 25 3 31 7
6 4 11 1 11 -6 0 -18 -69 -14 -75 4 -2 9 0 11 5 5 4 -6 17 -10 28 -10z m150 0
c11 0 24 4 28 10 5 6 7 4 5 -5 -6 -18 -75 -22 -75 -4 0 7 5 10 11 6 6 -4 20
-7 31 -7z m240 0 c11 0 23 4 27 10 4 5 6 0 5 -12 -1 -14 -5 -19 -12 -14 -5 4
-22 7 -36 6 -15 -1 -26 3 -26 11 0 7 5 10 11 6 6 -4 20 -7 31 -7z m85 0 c0 -1
-6 -7 -13 -13 -10 -8 -13 -6 -13 7 0 11 6 17 13 14 7 -3 13 -6 13 -8z m120 0
c0 -2 -6 -5 -13 -8 -8 -3 -14 1 -14 8 0 7 6 11 14 8 7 -3 13 -6 13 -8z m187
-7 c-3 -8 -6 -5 -6 6 -1 11 2 17 5 13 3 -3 4 -12 1 -19z m119 4 c-6 -10 -63
-9 -73 1 -3 4 11 5 31 3 21 -2 36 1 36 7 0 6 3 8 6 4 3 -3 3 -10 0 -15z m67 3
c9 2 17 -1 17 -7 0 -5 -6 -8 -12 -5 -7 2 -20 1 -28 -4 -11 -5 -16 -2 -16 11 0
12 4 16 11 11 5 -5 18 -7 28 -6z m240 0 c9 2 17 -1 17 -7 0 -5 -6 -8 -12 -5
-7 2 -20 1 -28 -4 -11 -5 -16 -2 -16 11 0 12 4 16 11 11 5 -5 18 -7 28 -6z
m-1989 -4 c-7 -8 -54 -9 -59 -2 -2 4 12 7 30 7 19 0 32 -3 29 -5z m143 -6 c0
-8 -4 -12 -9 -9 -5 3 -6 10 -3 15 9 13 12 11 12 -6z m77 4 c3 -2 -10 -5 -29
-5 -18 0 -32 3 -30 7 5 7 52 6 59 -2z m250 -4 c-4 -8 -11 -15 -16 -15 -6 0 -5
6 2 15 7 8 14 15 16 15 2 0 1 -7 -2 -15z m373 -7 c-3 -8 -6 -5 -6 6 -1 11 2
17 5 13 3 -3 4 -12 1 -19z m30 0 c-3 -8 -6 -5 -6 6 -1 11 2 17 5 13 3 -3 4
-12 1 -19z m187 11 c3 -3 -10 -5 -29 -4 -18 0 -36 3 -39 6 -3 3 10 5 29 4 18
0 36 -3 39 -6z m53 -11 c-3 -8 -6 -5 -6 6 -1 11 2 17 5 13 3 -3 4 -12 1 -19z
m173 12 c0 -5 -4 -10 -10 -10 -5 0 -10 5 -10 10 0 6 5 10 10 10 6 0 10 -4 10
-10z m138 -13 c8 -10 6 -13 -7 -13 -11 0 -17 6 -14 13 3 7 6 13 8 13 1 0 7 -6
13 -13z m-44 -5 c3 -5 -1 -9 -9 -9 -8 0 -12 4 -9 9 3 4 7 8 9 8 2 0 6 -4 9 -8z
m482 -11 c-13 -12 -18 -13 -28 -2 -11 10 -9 11 6 5 12 -5 17 -4 13 3 -3 5 1
10 9 10 13 0 13 -2 0 -16z m-963 -6 c-3 -9 -8 -14 -10 -11 -3 3 -2 9 2 15 9
16 15 13 8 -4z m165 -10 c-3 -3 -9 2 -12 12 -6 14 -5 15 5 6 7 -7 10 -15 7
-18z m26 9 c3 -8 2 -12 -4 -9 -6 3 -10 10 -10 16 0 14 7 11 14 -7z m372 -1
c-2 -9 -9 -19 -17 -21 -11 -3 -11 -1 1 7 8 6 11 11 7 11 -5 0 -5 5 -2 10 9 15
14 12 11 -7z m185 0 c13 -16 12 -17 -3 -4 -17 13 -22 21 -14 21 2 0 10 -8 17
-17z m-906 -1 c-3 -3 0 -10 5 -17 7 -8 5 -12 -5 -12 -8 0 -11 5 -8 10 4 6 0 8
-10 4 -10 -4 -14 -2 -11 7 3 7 11 13 19 13 8 0 13 -3 10 -5z m400 -24 c-7 -32
-13 -32 -11 1 0 16 4 27 8 25 4 -2 5 -14 3 -26z m99 16 c3 -9 -1 -11 -11 -7
-10 4 -14 2 -10 -4 3 -5 0 -10 -8 -10 -10 0 -12 4 -5 12 5 7 8 14 5 17 -3 2 2
5 10 5 8 0 16 -6 19 -13z m96 6 c8 -5 11 -10 5 -10 -5 0 -17 5 -25 10 -8 5
-10 10 -5 10 6 0 17 -5 25 -10z m289 -5 c3 -3 -7 -4 -23 -1 -16 3 -31 8 -35
11 -3 3 7 4 23 1 16 -3 31 -8 35 -11z m96 6 c3 -5 2 -12 -3 -15 -5 -3 -9 1 -9
9 0 17 3 19 12 6z m-779 -25 c0 -14 -3 -23 -7 -20 -6 3 -6 22 0 42 3 10 7 -2
7 -22z m79 -12 c0 -15 -7 -29 -15 -32 -10 -2 -11 -1 -4 5 6 4 10 20 9 35 -1
15 1 25 5 23 4 -2 6 -17 5 -31z m728 23 c3 -8 -1 -14 -8 -14 -7 0 -11 6 -8 14
3 7 6 13 8 13 2 0 5 -6 8 -13z m172 3 c4 -6 -1 -7 -11 -3 -10 4 -15 2 -11 -4
3 -5 0 -10 -8 -10 -11 0 -12 4 -4 14 14 15 26 17 34 3z m-1098 -22 c2 -18 0
-20 -7 -8 -12 18 -13 30 -2 30 4 0 9 -10 9 -22z m288 12 c-3 -5 -12 -10 -18
-10 -7 0 -6 4 3 10 19 12 23 12 15 0z m195 -5 c-5 -7 -8 -14 -5 -17 3 -3 -3
-11 -12 -19 -17 -13 -17 -13 -3 5 13 18 13 19 -1 14 -9 -4 -16 -1 -16 7 0 8 7
11 15 7 9 -3 13 -1 9 5 -3 5 0 10 8 10 10 0 12 -4 5 -12z m205 7 c-12 -8 -13
-41 -3 -58 4 -6 1 -11 -6 -11 -8 0 -12 13 -10 36 2 44 1 41 17 41 8 0 8 -3 2
-8z m42 2 c-3 -3 -12 -4 -19 -1 -8 3 -5 6 6 6 11 1 17 -2 13 -5z m270 -6 c-2
-7 -1 -20 4 -28 5 -11 2 -16 -11 -16 -12 0 -16 4 -11 11 5 5 7 18 6 28 -2 9 1
17 7 17 5 0 8 -6 5 -12z m158 -6 c-3 -3 -11 0 -18 7 -9 10 -8 11 6 5 10 -3 15
-9 12 -12z m-1298 -7 c0 -8 -5 -11 -10 -8 -6 4 -8 0 -4 -10 4 -11 2 -14 -9
-10 -13 5 -13 8 2 24 21 23 21 23 21 4z m220 9 c-3 -3 -12 -4 -19 -1 -8 3 -5
6 6 6 11 1 17 -2 13 -5z m170 0 c-3 -3 -12 -4 -19 -1 -8 3 -5 6 6 6 11 1 17
-2 13 -5z m590 0 c-3 -3 -12 -4 -19 -1 -8 3 -5 6 6 6 11 1 17 -2 13 -5z m360
0 c-3 -3 -12 -4 -19 -1 -8 3 -5 6 6 6 11 1 17 -2 13 -5z m-1037 -18 c-7 -7
-13 -7 -20 0 -6 6 -3 10 10 10 13 0 16 -4 10 -10z m337 -8 c-3 -8 -6 -5 -6 6
-1 11 2 17 5 13 3 -3 4 -12 1 -19z m99 -12 c0 -19 -3 -33 -7 -31 -7 5 -4 65 4
65 1 0 3 -15 3 -34z m135 17 c13 -17 13 -17 -6 -3 -11 8 -22 16 -24 17 -2 2 0
3 6 3 6 0 17 -8 24 -17z m149 7 c0 -5 -4 -10 -10 -10 -5 0 -10 5 -10 10 0 6 5
10 10 10 6 0 10 -4 10 -10z m237 -10 c-1 -11 -5 -20 -9 -20 -10 0 -10 4 -2 24
8 22 13 20 11 -4z m123 11 c0 -6 -4 -12 -8 -15 -5 -3 -9 1 -9 9 0 8 4 15 9 15
4 0 8 -4 8 -9z m-1287 -24 c-4 -6 0 -8 9 -5 8 4 15 0 15 -7 0 -10 -5 -11 -18
-4 -24 12 -31 26 -14 26 8 0 11 -5 8 -10z m94 7 c-3 -3 -12 -4 -19 -1 -8 3 -5
6 6 6 11 1 17 -2 13 -5z m230 0 c-3 -3 -12 -4 -19 -1 -8 3 -5 6 6 6 11 1 17
-2 13 -5z m82 -12 c-13 -21 -36 -25 -36 -6 0 7 6 10 13 7 6 -2 15 0 19 6 3 6
8 11 11 11 2 0 -1 -8 -7 -18z m478 12 c-3 -3 -12 -4 -19 -1 -8 3 -5 6 6 6 11
1 17 -2 13 -5z m208 -4 c-3 -5 -12 -10 -18 -10 -7 0 -6 4 3 10 19 12 23 12 15
0z m122 4 c-3 -3 -12 -4 -19 -1 -8 3 -5 6 6 6 11 1 17 -2 13 -5z m-1010 -10
c-3 -3 -12 -4 -19 -1 -8 3 -5 6 6 6 11 1 17 -2 13 -5z m635 -11 c3 1 10 -2 15
-7 5 -6 2 -6 -6 -1 -10 6 -13 4 -9 -7 4 -8 1 -15 -7 -15 -8 0 -11 7 -7 15 3 9
1 13 -5 9 -5 -3 -10 0 -10 8 0 9 4 11 11 6 6 -5 14 -9 18 -8z m-902 -3 c-8 -5
-19 -10 -25 -10 -5 0 -3 5 5 10 8 5 20 10 25 10 6 0 3 -5 -5 -10z m550 -2 c0
-3 -9 -6 -20 -5 -11 1 -20 5 -20 9 0 3 9 6 20 5 11 -1 20 -5 20 -9z m402 -2
c-10 -17 -9 -50 3 -59 6 -5 4 -7 -5 -5 -18 6 -22 75 -4 75 7 0 10 -5 6 -11z
m118 2 c0 -6 -3 -8 -7 -5 -3 4 -13 1 -22 -6 -14 -11 -14 -10 -2 6 15 20 31 22
31 5z m83 -12 c4 -10 1 -13 -8 -9 -8 3 -12 9 -9 14 7 12 11 11 17 -5z m74 -1
c0 -8 -4 -15 -9 -15 -10 0 -11 14 -1 23 9 10 10 9 10 -8z m-1178 -27 c35 20
37 20 37 2 0 -10 -5 -16 -11 -12 -14 9 -47 10 -66 1 -10 -5 -16 -3 -16 6 0 8
7 11 16 7 14 -5 14 -4 1 14 -14 18 -13 18 9 -1 13 -11 26 -18 30 -17z m144 15
c-4 -10 -2 -14 4 -10 5 3 10 0 10 -8 0 -8 -5 -11 -11 -7 -15 9 -48 10 -66 1
-11 -5 -16 -2 -16 11 0 10 5 16 11 12 19 -12 54 -9 59 5 3 7 8 13 10 13 3 0 2
-7 -1 -17z m181 -8 c18 0 31 -6 33 -15 3 -9 1 -11 -4 -5 -10 13 -63 13 -83 0
-13 -7 -13 -6 -2 8 8 9 11 22 7 29 -4 7 -1 6 7 -2 7 -9 26 -15 42 -15z m616
21 c0 -2 -7 -7 -16 -10 -8 -3 -12 -2 -9 4 6 10 25 14 25 6z m121 -16 c-5 -8
-6 -21 -4 -27 3 -7 0 -13 -5 -13 -6 0 -9 8 -7 18 1 9 -1 22 -6 27 -5 7 -1 11
11 11 13 0 16 -5 11 -16z m-646 -5 c11 0 25 3 31 7 6 4 11 1 11 -6 0 -8 -11
-12 -26 -11 -14 1 -31 -2 -36 -6 -7 -5 -11 0 -12 14 -1 12 1 17 5 12 4 -6 16
-10 27 -10z m98 0 c-3 -9 -8 -14 -10 -11 -3 3 -2 9 2 15 9 16 15 13 8 -4z m83
-4 c0 -14 -4 -17 -16 -11 -8 4 -26 6 -40 4 -18 -3 -21 -1 -11 5 8 5 22 8 32 6
10 -2 21 0 24 6 9 13 11 11 11 -10z m59 4 c11 0 27 4 35 10 12 7 13 6 3 -7
-16 -19 -65 -17 -71 2 -2 9 0 11 5 5 4 -6 17 -10 28 -10z m82 9 c-3 -3 -12 -4
-19 -1 -8 3 -5 6 6 6 11 1 17 -2 13 -5z m238 -3 c3 -5 2 -12 -3 -15 -5 -3 -9
1 -9 9 0 17 3 19 12 6z m-498 -23 c-3 -8 -6 -5 -6 6 -1 11 2 17 5 13 3 -3 4
-12 1 -19z m303 12 c0 -5 -4 -10 -10 -10 -5 0 -10 5 -10 10 0 6 5 10 10 10 6
0 10 -4 10 -10z m165 0 c-3 -5 -12 -10 -18 -10 -7 0 -6 4 3 10 19 12 23 12 15
0z m-1049 -45 c-1 -8 -6 -18 -11 -22 -4 -5 -5 -2 0 6 6 10 4 13 -7 9 -8 -4
-15 -1 -15 7 0 8 7 11 16 7 14 -5 14 -4 1 14 -14 17 -14 18 2 6 9 -7 15 -19
14 -27z m806 28 c-6 -2 -9 -10 -6 -15 4 -7 2 -8 -5 -4 -13 9 -5 26 12 25 9 0
8 -2 -1 -6z m121 -10 c-3 -7 -6 -13 -8 -13 -2 0 -5 6 -8 13 -3 8 1 14 8 14 7
0 11 -6 8 -14z m310 4 c-4 -7 1 -8 13 -3 15 6 17 5 6 -5 -10 -11 -15 -10 -28
2 -13 14 -13 16 0 16 8 0 12 -5 9 -10z m-1216 -19 c-3 -8 -6 -5 -6 6 -1 11 2
17 5 13 3 -3 4 -12 1 -19z m306 11 c10 8 14 7 14 -4 0 -8 -5 -11 -10 -8 -6 4
-8 0 -5 -8 4 -10 -1 -15 -12 -15 -11 0 -16 5 -12 15 3 8 1 12 -5 8 -5 -3 -10
0 -10 8 0 11 4 12 14 4 9 -8 17 -8 26 0z m284 -11 c-3 -8 -6 -5 -6 6 -1 11 2
17 5 13 3 -3 4 -12 1 -19z m440 16 c-3 -3 -12 -4 -19 -1 -8 3 -5 6 6 6 11 1
17 -2 13 -5z m-853 -13 c3 -5 -2 -15 -12 -22 -15 -12 -16 -12 -5 2 7 9 10 19
6 22 -3 4 -4 7 0 7 3 0 8 -4 11 -9z m243 2 c-4 -3 -2 -11 3 -18 7 -8 5 -12 -5
-12 -8 0 -11 5 -8 10 4 7 -1 8 -13 4 -18 -7 -18 -7 0 8 20 15 35 21 23 8z
m254 -16 c-10 -9 -11 -8 -5 6 3 10 9 15 12 12 3 -3 0 -11 -7 -18z m31 5 c3
-11 0 -19 -7 -19 -7 0 -10 8 -7 19 2 10 6 18 7 18 1 0 5 -8 7 -18z m135 3 c5
-4 2 -5 -6 0 -10 6 -13 4 -9 -7 4 -8 1 -15 -7 -15 -8 0 -11 7 -7 16 5 14 4 14
-14 1 -17 -14 -18 -14 -6 2 13 17 36 18 49 3z m257 -1 c3 -8 2 -12 -4 -9 -6 3
-10 10 -10 16 0 14 7 11 14 -7z m-194 -14 c0 -5 -4 -10 -10 -10 -5 0 -10 5
-10 10 0 6 5 10 10 10 6 0 10 -4 10 -10z m117 4 c-3 -3 -12 -4 -19 -1 -8 3 -5
6 6 6 11 1 17 -2 13 -5z m38 -37 c1 -20 -2 -34 -5 -32 -4 2 -6 17 -5 32 1 15
-3 32 -9 36 -7 6 -6 7 4 5 9 -3 15 -18 15 -41z m-1138 18 c0 -8 -5 -11 -10 -8
-6 4 -8 -1 -4 -11 4 -10 3 -15 -3 -11 -6 3 -10 0 -11 -7 0 -10 -2 -10 -6 0 -2
6 -10 9 -15 6 -7 -4 -8 -2 -4 5 4 6 12 8 18 5 8 -5 9 -1 5 10 -4 9 -3 14 2 11
5 -3 12 -1 16 5 9 14 12 13 12 -5z m193 1 c19 2 29 -1 22 -5 -21 -13 -65 -6
-70 9 -2 10 -1 11 5 4 4 -6 24 -10 43 -8z m406 -5 c0 -11 -5 -17 -11 -13 -5 3
-20 7 -33 8 -12 0 -25 4 -29 8 -4 4 4 5 18 3 14 -3 32 -1 40 4 8 5 14 9 14 9
1 0 1 -9 1 -19z m121 4 c0 -8 -5 -11 -10 -8 -7 4 -8 -1 -3 -12 6 -17 5 -18
-11 -3 -10 8 -30 14 -45 13 -15 -1 -25 1 -23 5 3 5 21 6 40 4 19 -1 37 1 40 7
9 13 12 11 12 -6z m480 1 c0 -8 -6 -12 -15 -9 -11 5 -11 7 0 14 7 5 13 9 14 9
0 0 1 -6 1 -14z m-1103 -7 c3 -3 -5 -5 -19 -5 -13 0 -22 3 -19 7 4 8 30 6 38
-2z m360 -5 c3 -8 2 -12 -4 -9 -6 3 -10 10 -10 16 0 14 7 11 14 -7z m602 -9
c-1 -13 -4 -27 -7 -30 -5 -4 -4 41 0 53 4 10 8 -2 7 -23z m48 17 c2 -4 -4 -8
-14 -8 -10 0 -16 4 -14 8 3 4 9 8 14 8 5 0 11 -4 14 -8z m166 2 c0 -8 -19 -13
-24 -6 -3 5 1 9 9 9 8 0 15 -2 15 -3z m-292 -17 c8 -10 6 -13 -7 -13 -11 0
-17 6 -14 13 3 7 6 13 8 13 1 0 7 -6 13 -13z m-635 -14 c-3 -7 -6 -13 -8 -13
-2 0 -5 6 -8 13 -3 8 1 14 8 14 7 0 11 -6 8 -14z m70 0 c-3 -7 -6 -13 -8 -13
-2 0 -5 6 -8 13 -3 8 1 14 8 14 7 0 11 -6 8 -14z m400 4 c-4 -6 0 -8 9 -5 8 4
15 0 15 -7 0 -10 -5 -11 -18 -4 -24 12 -31 26 -14 26 8 0 11 -5 8 -10z m127
-2 c0 -12 -19 -12 -23 0 -4 9 -1 12 9 8 7 -3 14 -7 14 -8z m245 5 c3 -6 -1 -7
-9 -4 -18 7 -21 14 -7 14 6 0 13 -4 16 -10z m-1090 -46 c0 -24 -6 -39 -15 -42
-10 -2 -11 0 -4 5 5 4 10 25 9 45 -1 20 2 35 5 33 4 -2 6 -21 5 -41z m22 24
c-3 -8 -6 -5 -6 6 -1 11 2 17 5 13 3 -3 4 -12 1 -19z m510 0 c-3 -8 -6 -5 -6
6 -1 11 2 17 5 13 3 -3 4 -12 1 -19z m29 -12 c0 -19 -3 -33 -7 -31 -7 5 -4 65
4 65 1 0 3 -15 3 -34z m-616 16 c0 -4 -10 -9 -22 -9 -18 -2 -20 0 -8 7 18 12
30 13 30 2z m197 -6 c0 -8 -8 -11 -21 -8 -19 5 -19 6 0 13 10 4 19 8 20 8 0 1
1 -5 1 -13z m303 -1 c0 -1 -8 -5 -18 -7 -11 -3 -19 0 -19 7 0 7 8 10 19 7 10
-2 18 -6 18 -7z m210 5 c-8 -5 -19 -10 -25 -10 -5 0 -3 5 5 10 8 5 20 10 25
10 6 0 3 -5 -5 -10z m274 -2 c-3 -4 -9 -8 -15 -8 -5 0 -9 4 -9 8 0 5 7 9 15 9
8 0 12 -4 9 -9z m151 -6 c-3 -3 -11 0 -18 7 -9 10 -8 11 6 5 10 -3 15 -9 12
-12z m45 8 c0 -5 -2 -10 -4 -10 -3 0 -8 5 -11 10 -3 6 -1 10 4 10 6 0 11 -4
11 -10z m-1246 -18 c3 -5 -1 -9 -9 -9 -8 0 -12 4 -9 9 3 4 7 8 9 8 2 0 6 -4 9
-8z m90 0 c3 -5 -1 -9 -9 -9 -8 0 -12 4 -9 9 3 4 7 8 9 8 2 0 6 -4 9 -8z m276
-2 c0 -5 -4 -10 -10 -10 -5 0 -10 5 -10 10 0 6 5 10 10 10 6 0 10 -4 10 -10z
m80 0 c0 -5 -4 -10 -10 -10 -5 0 -10 5 -10 10 0 6 5 10 10 10 6 0 10 -4 10
-10z m520 6 c0 -2 -7 -7 -16 -10 -8 -3 -12 -2 -9 4 6 10 25 14 25 6z m42 -11
c-3 -5 -7 -20 -8 -33 0 -12 -4 -25 -8 -29 -3 -4 -5 4 -3 18 3 13 1 31 -3 39
-6 11 -3 16 10 16 10 0 16 -5 12 -11z m153 -3 c-3 -3 -11 0 -18 7 -9 10 -8 11
6 5 10 -3 15 -9 12 -12z m-948 -14 c-3 -8 -6 -5 -6 6 -1 11 2 17 5 13 3 -3 4
-12 1 -19z m103 7 c0 -2 -6 -5 -13 -8 -8 -3 -14 1 -14 8 0 7 6 11 14 8 7 -3
13 -6 13 -8z m187 1 c0 -8 -6 -12 -15 -9 -11 5 -11 7 0 14 7 5 13 9 14 9 0 0
1 -6 1 -14z m80 -8 c-3 -8 -6 -5 -6 6 -1 11 2 17 5 13 3 -3 4 -12 1 -19z m279
3 c0 -16 -3 -17 -14 -9 -12 10 -7 19 13 28 1 0 1 -9 1 -19z m-896 -1 c0 -5 -5
-10 -11 -10 -5 0 -7 5 -4 10 3 6 8 10 11 10 2 0 4 -4 4 -10z m57 -12 c-3 -8
-6 -5 -6 6 -1 11 2 17 5 13 3 -3 4 -12 1 -19z m30 0 c-3 -8 -6 -5 -6 6 -1 11
2 17 5 13 3 -3 4 -12 1 -19z m668 4 c-3 -3 -11 0 -18 7 -9 10 -8 11 6 5 10 -3
15 -9 12 -12z m75 3 c0 -2 -6 -5 -13 -8 -8 -3 -14 1 -14 8 0 7 6 11 14 8 7 -3
13 -6 13 -8z m30 5 c0 -5 -4 -10 -10 -10 -5 0 -10 5 -10 10 0 6 5 10 10 10 6
0 10 -4 10 -10z m300 0 c0 -5 -4 -10 -10 -10 -5 0 -10 5 -10 10 0 6 5 10 10
10 6 0 10 -4 10 -10z m-757 -13 c3 -7 -3 -13 -14 -13 -13 0 -15 3 -7 13 6 7
12 13 13 13 2 0 5 -6 8 -13z m80 0 c3 -7 -3 -13 -14 -13 -13 0 -15 3 -7 13 6
7 12 13 13 13 2 0 5 -6 8 -13z m41 -5 c3 -5 -1 -9 -9 -9 -8 0 -12 4 -9 9 3 4
7 8 9 8 2 0 6 -4 9 -8z m436 -7 c-5 -6 -8 -21 -5 -33 2 -12 0 -24 -5 -27 -4
-3 -7 3 -5 12 1 10 -5 26 -13 36 -15 16 -14 17 3 11 11 -5 16 -4 12 3 -3 5 0
10 8 10 10 0 12 -4 5 -12z m157 9 c-3 -3 -12 -4 -19 -1 -8 3 -5 6 6 6 11 1 17
-2 13 -5z m90 0 c-3 -3 -12 -4 -19 -1 -8 3 -5 6 6 6 11 1 17 -2 13 -5z m-430
-21 c0 -6 -7 -8 -16 -5 -14 5 -14 4 -1 -14 14 -18 14 -18 -2 -5 -10 7 -16 17
-13 21 3 5 -1 10 -7 13 -7 2 -1 4 13 3 14 0 26 -6 26 -13z m356 2 c-3 -9 -8
-14 -10 -11 -3 3 -2 9 2 15 9 16 15 13 8 -4z m-1058 -42 c0 -15 -7 -28 -15
-31 -9 -2 -11 0 -5 5 13 10 13 43 0 63 -7 12 -6 13 7 3 8 -7 14 -25 13 -40z
m129 38 c-2 -3 -19 -6 -36 -7 -18 -2 -27 1 -20 5 13 8 64 10 56 2z m426 -1
c-8 -5 -17 -7 -21 -4 -4 2 -10 0 -14 -6 -3 -5 -11 -10 -18 -10 -19 0 24 26 46
27 17 2 18 0 7 -7z m280 6 c0 -2 -8 -10 -17 -17 -16 -13 -17 -12 -4 4 13 16
21 21 21 13z m166 -22 c-3 -15 -8 -29 -11 -32 -3 -3 -3 5 -1 19 2 13 5 27 5
32 1 4 3 7 6 7 3 0 3 -12 1 -26z m-831 -2 c-12 -8 -13 -61 -3 -78 4 -6 1 -11
-7 -11 -8 0 -11 5 -8 10 4 7 -1 8 -13 4 -16 -6 -17 -5 -4 5 16 13 20 45 8 63
-4 6 3 12 15 12 12 1 17 -1 12 -5z m73 -9 c-6 -7 -12 -13 -13 -13 -2 0 -5 6
-8 13 -3 7 3 13 14 13 13 0 15 -3 7 -13z m52 11 c0 -8 -19 -13 -24 -6 -3 5 1
9 9 9 8 0 15 -2 15 -3z m275 -2 c-12 -8 -13 -41 -3 -58 4 -6 1 -11 -6 -11 -8
0 -12 13 -10 36 2 44 1 41 17 41 8 0 8 -3 2 -8z m42 2 c-3 -3 -12 -4 -19 -1
-8 3 -5 6 6 6 11 1 17 -2 13 -5z m205 -19 c20 1 35 -2 33 -5 -8 -13 -79 -4
-83 10 -2 10 0 11 5 4 4 -5 25 -10 45 -9z m115 9 c-3 -3 -12 -4 -19 -1 -8 3
-5 6 6 6 11 1 17 -2 13 -5z m-997 -10 c0 -8 -19 -13 -24 -6 -3 5 1 9 9 9 8 0
15 -2 15 -3z m157 -16 c-3 -8 -6 -5 -6 6 -1 11 2 17 5 13 3 -3 4 -12 1 -19z
m210 8 c0 -8 -6 -12 -15 -9 -11 5 -11 7 0 14 7 5 13 9 14 9 0 0 1 -6 1 -14z
m80 0 c0 -8 -6 -12 -15 -8 -10 3 -13 1 -8 -6 3 -6 -2 -15 -12 -21 -14 -7 -19
-6 -19 4 0 7 7 11 15 7 10 -3 13 -1 8 6 -5 8 10 25 30 32 0 0 1 -6 1 -14z
m133 10 c0 -2 -8 -10 -17 -17 -16 -13 -17 -12 -4 4 13 16 21 21 21 13z m94 -4
c2 -4 -4 -8 -14 -8 -10 0 -16 4 -14 8 3 4 9 8 14 8 5 0 11 -4 14 -8z m32 -28
c0 -13 -2 -22 -5 -19 -3 3 -6 17 -7 31 0 13 2 22 5 19 3 -3 6 -17 7 -31z m408
28 c3 -5 -1 -9 -9 -9 -8 0 -12 4 -9 9 3 4 7 8 9 8 2 0 6 -4 9 -8z m-1167 -27
c0 -8 -4 -12 -9 -9 -4 3 -8 9 -8 15 0 5 4 9 8 9 5 0 9 -7 9 -15z m78 -3 c-3
-3 -11 0 -18 7 -9 10 -8 11 6 5 10 -3 15 -9 12 -12z m285 8 c0 -5 -4 -10 -10
-10 -5 0 -10 5 -10 10 0 6 5 10 10 10 6 0 10 -4 10 -10z m475 -47 c0 -23 -6
-38 -15 -41 -9 -2 -11 0 -5 5 13 10 13 63 0 83 -7 12 -6 13 6 3 9 -8 15 -27
14 -50z m238 40 c-3 -7 -6 -13 -8 -13 -2 0 -5 6 -8 13 -3 8 1 14 8 14 7 0 11
-6 8 -14z m-896 -15 c-3 -8 -6 -5 -6 6 -1 11 2 17 5 13 3 -3 4 -12 1 -19z
m373 0 c0 -6 -6 -5 -15 2 -8 7 -15 14 -15 16 0 2 7 1 15 -2 8 -4 15 -11 15
-16z m23 7 c-3 -9 -8 -14 -10 -11 -3 3 -2 9 2 15 9 16 15 13 8 -4z m394 9 c-3
-3 -12 -4 -19 -1 -8 3 -5 6 6 6 11 1 17 -2 13 -5z m-40 -26 c-3 -8 -6 -5 -6 6
-1 11 2 17 5 13 3 -3 4 -12 1 -19z m110 16 c-2 -3 -17 -7 -33 -10 -17 -2 -24
-1 -17 4 13 8 58 14 50 6z m-957 -8 c0 -2 -7 -9 -15 -16 -13 -11 -14 -10 -9 4
5 14 24 23 24 12z m273 -9 c3 -8 -1 -14 -8 -14 -7 0 -11 6 -8 14 3 7 6 13 8
13 2 0 5 -6 8 -13z m-232 -17 c-5 -8 -6 -21 -4 -27 3 -7 0 -13 -5 -13 -6 0 -9
8 -7 18 1 9 -1 22 -6 27 -5 7 -1 11 11 11 13 0 16 -5 11 -16z m750 3 c13 -16
12 -17 -3 -4 -17 13 -22 21 -14 21 2 0 10 -8 17 -17z m88 0 c-12 -14 -12 -16
2 -11 9 4 16 1 16 -7 0 -8 -7 -11 -15 -7 -11 4 -13 1 -7 -8 5 -8 4 -11 -3 -7
-15 10 -3 57 15 57 3 0 -1 -8 -8 -17z m-423 -12 c0 -11 -5 -17 -13 -14 -10 4
-11 9 -2 19 15 18 15 18 15 -5z m61 4 c12 0 25 3 29 8 4 4 12 7 18 7 5 0 2 -6
-8 -13 -24 -18 -69 -15 -74 3 -2 9 0 11 5 5 4 -6 18 -11 30 -10z m300 -7 c-3
-8 -6 -5 -6 6 -1 11 2 17 5 13 3 -3 4 -12 1 -19z m197 7 c-7 -17 -34 -21 -34
-4 0 5 4 8 9 4 5 -3 12 -1 16 5 9 15 15 12 9 -5z m-1094 -5 c0 -5 -4 -10 -10
-10 -5 0 -10 5 -10 10 0 6 5 10 10 10 6 0 10 -4 10 -10z m214 -1 c3 -2 -10 -5
-29 -5 -18 0 -32 3 -30 7 5 7 52 6 59 -2z m286 1 c0 -5 -4 -10 -10 -10 -5 0
-10 5 -10 10 0 6 5 10 10 10 6 0 10 -4 10 -10z m220 0 c0 -5 -4 -10 -10 -10
-5 0 -10 5 -10 10 0 6 5 10 10 10 6 0 10 -4 10 -10z m76 -15 c-1 -8 -5 -17 -8
-21 -5 -4 -4 16 1 34 3 9 9 -1 7 -13z m-757 -17 c-8 -15 -13 -17 -25 -7 -8 6
-14 14 -14 16 0 3 8 -1 17 -8 14 -12 16 -12 11 2 -4 9 -1 16 7 16 11 0 11 -5
4 -19z m284 5 c-4 -10 -9 -11 -19 -2 -18 15 -18 15 5 15 11 0 17 -5 14 -13z
m120 5 c-11 -19 -10 -72 2 -81 6 -5 4 -7 -5 -4 -9 2 -15 15 -15 33 0 16 -6 35
-15 42 -13 11 -13 11 1 6 10 -3 20 -1 24 5 3 6 8 11 11 11 3 0 2 -6 -3 -12z
m234 6 c-3 -3 -12 -4 -19 -1 -8 3 -5 6 6 6 11 1 17 -2 13 -5z m90 0 c-3 -3
-12 -4 -19 -1 -8 3 -5 6 6 6 11 1 17 -2 13 -5z m274 -7 c-5 -5 -7 -15 -5 -22
3 -7 1 -16 -5 -20 -7 -4 -8 1 -4 12 6 15 4 16 -8 6 -12 -10 -15 -8 -15 6 0 12
5 17 15 13 8 -3 12 -1 8 5 -3 5 1 10 9 10 9 0 11 -4 5 -10z m-846 -41 c-1 -51
-11 -52 -11 -1 0 24 3 42 6 40 4 -2 6 -20 5 -39z m22 22 c-3 -8 -6 -5 -6 6 -1
11 2 17 5 13 3 -3 4 -12 1 -19z m535 7 c3 3 4 -7 3 -22 -1 -16 2 -33 6 -38 5
-7 1 -11 -11 -11 -18 0 -18 2 2 37 1 4 -6 17 -17 30 -11 13 -13 18 -4 11 9 -6
18 -10 21 -7z m-197 -3 c-3 -3 0 -10 5 -17 7 -8 5 -12 -5 -12 -8 0 -11 5 -8
10 4 6 0 8 -10 4 -10 -4 -14 -2 -11 7 3 7 11 13 19 13 8 0 13 -3 10 -5z m123
-13 c9 -13 9 -16 -3 -16 -8 0 -11 5 -8 10 4 7 -1 8 -12 3 -15 -5 -16 -4 -5 9
7 9 13 14 14 13 1 -2 7 -10 14 -19z m242 11 c0 -5 -4 -10 -10 -10 -5 0 -10 5
-10 10 0 6 5 10 10 10 6 0 10 -4 10 -10z m-925 -10 c-3 -5 -1 -10 6 -10 7 0
10 -3 6 -6 -9 -9 -28 6 -22 17 4 5 8 9 11 9 3 0 2 -4 -1 -10z m124 -3 c8 -10
7 -14 -4 -14 -8 0 -11 5 -8 10 4 6 -1 8 -11 4 -10 -4 -15 -3 -11 3 8 14 20 12
34 -3z m722 -12 c-5 -5 -7 -18 -6 -27 2 -10 -1 -18 -7 -18 -5 0 -8 6 -5 13 2
6 1 19 -4 27 -5 11 -2 16 11 16 12 0 16 -4 11 -11z m153 -1 c3 -8 2 -12 -4 -9
-6 3 -10 10 -10 16 0 14 7 11 14 -7z m-747 0 c-3 -3 -12 -4 -19 -1 -8 3 -5 6
6 6 11 1 17 -2 13 -5z m120 0 c-3 -3 -12 -4 -19 -1 -8 3 -5 6 6 6 11 1 17 -2
13 -5z m130 -8 c0 -9 -6 -12 -16 -8 -13 5 -14 3 -4 -9 10 -13 10 -16 -1 -16
-23 0 -5 42 20 47 0 0 1 -6 1 -14z m-537 -6 c0 -4 -7 -7 -15 -6 -23 3 -26 12
-5 13 11 1 20 -2 20 -7z m120 -25 c0 -5 -5 -3 -10 5 -5 8 -10 20 -10 25 0 6 5
3 10 -5 5 -8 10 -19 10 -25z m240 25 c0 -5 -4 -10 -10 -10 -5 0 -10 5 -10 10
0 6 5 10 10 10 6 0 10 -4 10 -10z m577 -4 c0 -8 -6 -12 -15 -9 -11 5 -11 7 0
14 7 5 13 9 14 9 0 0 1 -6 1 -14z m-901 -21 c-1 -8 -5 -17 -8 -21 -5 -4 -4 16
1 34 3 9 9 -1 7 -13z m36 -4 c-5 -14 -4 -14 14 -1 18 14 18 14 2 -5 -23 -27
-23 -27 -10 -50 9 -17 7 -21 -8 -21 -10 0 -16 5 -12 11 9 14 10 47 1 66 -5 10
-3 16 6 16 8 0 11 -7 7 -16z m130 1 c-7 -2 -9 -9 -5 -15 3 -7 3 -9 -2 -5 -4 4
-13 3 -20 -2 -8 -7 -12 -5 -12 5 0 8 5 11 10 8 6 -4 8 0 4 9 -4 12 -1 14 16
10 12 -3 16 -7 9 -10z m115 12 c-3 -3 -12 -4 -19 -1 -8 3 -5 6 6 6 11 1 17 -2
13 -5z m83 2 c0 -2 -7 -7 -16 -10 -8 -3 -12 -2 -9 4 6 10 25 14 25 6z m233 -9
c-4 -6 0 -8 9 -5 8 4 15 1 15 -6 0 -18 -23 -15 -35 4 -7 12 -7 17 4 17 7 0 10
-5 7 -10z m122 -5 c-3 -3 -11 0 -18 7 -9 10 -8 11 6 5 10 -3 15 -9 12 -12z
m212 -14 c-3 -8 -6 -5 -6 6 -1 11 2 17 5 13 3 -3 4 -12 1 -19z m-960 -10 c-3
-8 -6 -5 -6 6 -1 11 2 17 5 13 3 -3 4 -12 1 -19z m563 12 c-8 -5 -19 -10 -25
-10 -5 0 -3 5 5 10 8 5 20 10 25 10 6 0 3 -5 -5 -10z m184 -9 c3 -5 -1 -11 -9
-14 -9 -4 -12 -1 -8 9 6 16 10 17 17 5z m141 -1 c4 -6 -1 -7 -11 -3 -10 4 -15
2 -11 -4 3 -5 0 -10 -8 -10 -11 0 -12 4 -4 14 14 15 26 17 34 3z m-600 -25
c11 0 25 3 30 7 6 4 12 -3 12 -15 1 -12 -1 -17 -5 -12 -8 12 -61 13 -78 3 -6
-4 -11 -1 -11 7 0 8 5 11 10 8 7 -4 8 1 4 13 -6 16 -5 17 5 4 7 -9 22 -15 33
-15z m152 19 c-3 -3 -12 -4 -19 -1 -8 3 -5 6 6 6 11 1 17 -2 13 -5z m172 -26
c35 20 37 20 37 2 0 -12 -4 -16 -11 -11 -5 4 -22 7 -38 6 -15 -1 -25 0 -22 3
3 3 -1 12 -7 21 -7 9 -2 7 11 -4 13 -11 26 -18 30 -17z m179 15 c-6 -7 -12
-13 -13 -13 -2 0 -5 6 -8 13 -3 7 3 13 14 13 13 0 15 -3 7 -13z m-821 -15 c-3
-8 -6 -5 -6 6 -1 11 2 17 5 13 3 -3 4 -12 1 -19z m160 7 c0 -8 -5 -11 -10 -8
-6 4 -8 0 -5 -9 4 -8 0 -15 -8 -15 -13 0 -11 9 9 35 12 15 14 15 14 -3z m-182
-14 c-1 -8 -7 -16 -14 -17 -7 -2 -7 0 -1 3 7 3 8 9 1 17 -8 9 -7 13 3 13 8 0
13 -7 11 -16z m59 3 c3 -8 2 -12 -4 -9 -6 3 -10 10 -10 16 0 14 7 11 14 -7z
m431 5 c3 -3 -13 -5 -35 -4 -22 1 -40 -3 -40 -8 0 -6 -3 -8 -6 -4 -3 3 -4 10
-1 15 6 9 72 10 82 1z m30 -21 c-7 -32 -13 -32 -11 1 0 16 4 27 8 25 4 -2 5
-14 3 -26z m92 10 c-3 -8 -6 -5 -6 6 -1 11 2 17 5 13 3 -3 4 -12 1 -19z m344
-5 c-12 -20 -14 -14 -5 12 4 9 9 14 11 11 3 -2 0 -13 -6 -23z m-193 -12 c-7
-9 -13 -17 -14 -19 -1 -1 -7 4 -14 13 -11 13 -10 14 5 9 11 -5 16 -4 12 3 -3
5 0 10 8 10 12 0 12 -3 3 -16z m82 9 c0 -5 -4 -10 -10 -10 -5 0 -10 5 -10 10
0 6 5 10 10 10 6 0 10 -4 10 -10z m-583 -15 c0 -8 -5 -11 -10 -8 -7 4 -8 -1
-3 -13 4 -10 4 -15 0 -12 -3 4 -14 -2 -24 -14 -13 -17 -17 -18 -17 -5 0 9 5
13 10 10 7 -4 8 1 3 13 -4 10 -4 15 0 11 4 -4 13 2 21 13 17 24 20 25 20 5z
m178 -17 c-1 -18 2 -38 6 -43 5 -7 -1 -11 -14 -12 -12 -1 -17 1 -11 5 6 4 10
21 8 37 -1 26 2 45 9 45 2 0 2 -15 2 -32z m155 7 c14 -18 14 -19 -2 -7 -13 10
-17 10 -20 0 -3 -8 -7 -6 -11 6 -4 10 -3 15 3 11 6 -3 10 -1 10 6 0 7 1 10 3
8 1 -2 9 -13 17 -24z m-516 3 c-2 -4 -14 -5 -26 -3 -32 7 -32 13 1 11 16 0 27
-4 25 -8z m283 5 c-4 -3 -1 -13 6 -22 10 -14 10 -14 -5 -3 -9 8 -23 11 -30 7
-7 -4 -4 1 6 9 19 16 36 22 23 9z m273 1 c0 -8 -19 -13 -24 -6 -3 5 1 9 9 9 8
0 15 -2 15 -3z m84 -2 c3 -5 -1 -9 -9 -9 -8 0 -12 4 -9 9 3 4 7 8 9 8 2 0 6
-4 9 -8z m183 -6 c0 -8 -6 -12 -15 -9 -11 5 -11 7 0 14 7 5 13 9 14 9 0 0 1
-6 1 -14z m-222 -32 c0 -15 -7 -29 -15 -32 -10 -2 -11 -1 -4 5 6 4 10 20 9 35
-1 15 1 25 5 23 4 -2 6 -17 5 -31z m168 23 c3 -8 -1 -14 -8 -14 -7 0 -11 6 -8
14 3 7 6 13 8 13 2 0 5 -6 8 -13z m-881 -4 c-6 -2 -9 -10 -6 -15 4 -7 2 -8 -5
-4 -13 9 -5 26 12 25 9 0 8 -2 -1 -6z m45 1 c-3 -3 -12 -4 -19 -1 -8 3 -5 6 6
6 11 1 17 -2 13 -5z m510 -10 c-3 -3 -12 -4 -19 -1 -8 3 -5 6 6 6 11 1 17 -2
13 -5z m240 0 c-3 -3 -12 -4 -19 -1 -8 3 -5 6 6 6 11 1 17 -2 13 -5z m-746
-21 c13 -17 13 -17 -6 -3 -11 8 -22 16 -24 17 -2 2 0 3 6 3 6 0 17 -8 24 -17z
m86 3 c0 -8 -6 -12 -15 -8 -11 4 -13 1 -7 -8 6 -9 4 -11 -5 -5 -10 6 -9 11 5
22 23 16 22 16 22 -1z m458 -41 c2 -26 1 -44 -2 -41 -3 3 -7 26 -8 51 -2 26
-1 44 2 41 3 -3 7 -26 8 -51z m55 49 c0 -8 -19 -13 -24 -6 -3 5 1 9 9 9 8 0
15 -2 15 -3z m190 -4 c0 -5 -4 -10 -10 -10 -5 0 -10 5 -10 10 0 6 5 10 10 10
6 0 10 -4 10 -10z m-527 -27 c-3 -7 -6 -13 -8 -13 -2 0 -5 6 -8 13 -3 8 1 14
8 14 7 0 11 -6 8 -14z m122 -1 c-3 -3 -11 0 -18 7 -9 10 -8 11 6 5 10 -3 15
-9 12 -12z m130 8 c3 -6 -1 -7 -9 -4 -18 7 -21 14 -7 14 6 0 13 -4 16 -10z
m110 -8 c-3 -3 -11 0 -18 7 -9 10 -8 11 6 5 10 -3 15 -9 12 -12z m122 12 c-3
-3 -12 -4 -19 -1 -8 3 -5 6 6 6 11 1 17 -2 13 -5z m-696 -46 c-10 -11 -11 -9
-5 6 5 12 4 17 -3 13 -5 -3 -10 1 -10 9 0 13 2 13 16 0 12 -13 13 -18 2 -28z
m89 27 c0 -12 -19 -12 -23 0 -4 9 -1 12 9 8 7 -3 14 -7 14 -8z m23 0 c-3 -9
-8 -14 -10 -11 -3 3 -2 9 2 15 9 16 15 13 8 -4z m-213 -4 c0 -6 -4 -12 -8 -15
-5 -3 -9 1 -9 9 0 8 4 15 9 15 4 0 8 -4 8 -9z m440 -6 c0 -1 -8 -5 -18 -7 -11
-3 -19 0 -19 7 0 7 8 10 19 7 10 -2 18 -6 18 -7z m325 5 c3 -6 -1 -7 -9 -4
-18 7 -21 14 -7 14 6 0 13 -4 16 -10z m-445 -20 c0 -5 -4 -10 -10 -10 -5 0
-10 5 -10 10 0 6 5 10 10 10 6 0 10 -4 10 -10z m197 4 c-3 -3 -12 -4 -19 -1
-8 3 -5 6 6 6 11 1 17 -2 13 -5z m204 -14 c-5 -8 -6 -21 -4 -27 3 -7 0 -13 -5
-13 -6 0 -9 8 -7 18 1 9 -1 22 -6 27 -5 7 -1 11 11 11 13 0 16 -5 11 -16z
m-545 -9 c0 -16 -3 -17 -14 -9 -12 10 -7 19 13 28 1 0 1 -9 1 -19z m77 4 c9 2
15 0 12 -5 -3 -5 -13 -7 -23 -5 -9 1 -22 -1 -27 -6 -7 -5 -11 -1 -11 11 0 13
4 16 16 11 8 -5 23 -7 33 -6z m124 1 c0 -8 -6 -12 -15 -9 -11 5 -11 7 0 14 7
5 13 9 14 9 0 0 1 -6 1 -14z m-425 -14 c-4 -11 -1 -13 9 -7 8 5 11 4 6 0 -14
-16 -33 -13 -33 5 0 9 6 17 12 17 7 0 10 -7 6 -15z m48 12 c0 -8 -19 -13 -24
-6 -3 5 1 9 9 9 8 0 15 -2 15 -3z m31 -17 c-10 -9 -11 -8 -5 6 3 10 9 15 12
12 3 -3 0 -11 -7 -18z m109 13 c0 -5 -4 -10 -10 -10 -5 0 -10 5 -10 10 0 6 5
10 10 10 6 0 10 -4 10 -10z m335 -7 c-1 -10 3 -25 9 -33 9 -13 9 -13 -6 -2
-13 10 -16 26 -9 50 4 11 9 -2 6 -15z m99 6 c3 -2 -15 -5 -39 -5 -24 0 -42 3
-40 6 5 8 72 7 79 -1z m223 -3 c-3 -8 -2 -17 4 -20 5 -2 4 -3 -2 -2 -15 3 -21
36 -7 36 6 0 8 -6 5 -14z m-479 -9 c8 -10 6 -13 -7 -13 -11 0 -17 6 -14 13 3
7 6 13 8 13 1 0 7 -6 13 -13z m-235 -14 c-3 -7 -6 -13 -8 -13 -2 0 -5 6 -8 13
-3 8 1 14 8 14 7 0 11 -6 8 -14z m281 9 c3 -5 -1 -9 -9 -9 -8 0 -12 4 -9 9 3
4 7 8 9 8 2 0 6 -4 9 -8z m278 -10 c-3 -10 -1 -13 6 -8 7 4 12 5 12 2 0 -15
-20 -14 -29 2 -7 14 -6 19 4 19 7 0 11 -7 7 -15z m-47 -21 c-6 -5 -25 10 -25
20 0 5 6 4 14 -3 8 -7 12 -15 11 -17z m-618 -3 c-3 -8 -6 -5 -6 6 -1 11 2 17
5 13 3 -3 4 -12 1 -19z m138 4 c-3 -3 -11 0 -18 7 -9 10 -8 11 6 5 10 -3 15
-9 12 -12z m85 9 c0 -6 -4 -12 -8 -15 -5 -3 -9 1 -9 9 0 8 4 15 9 15 4 0 8 -4
8 -9z m210 -1 c-18 -12 -30 -13 -30 -2 0 4 10 9 22 9 18 2 20 0 8 -7z m49 -13
c0 -9 -2 -8 -6 1 -2 6 -10 9 -15 6 -7 -4 -8 -2 -4 5 9 13 26 5 25 -12z m-510
-11 c10 -12 8 -17 -7 -25 -14 -7 -19 -7 -19 4 0 8 7 11 16 7 14 -5 14 -3 2 11
-7 9 -11 17 -8 17 2 0 10 -6 16 -14z m336 4 c-4 -6 -1 -18 7 -27 12 -15 11
-15 -9 -3 -16 11 -19 17 -11 27 13 16 22 17 13 3z m144 -4 c10 -12 8 -17 -7
-25 -14 -7 -19 -7 -19 4 0 8 7 11 16 7 14 -5 14 -3 2 11 -7 9 -11 17 -8 17 2
0 10 -6 16 -14z m332 -4 c-11 -20 -38 -24 -38 -6 0 11 3 11 16 1 12 -10 14 -9
9 4 -4 9 -1 16 8 16 9 0 10 -5 5 -15z m-731 -7 c0 -2 -6 -5 -13 -8 -8 -3 -14
1 -14 8 0 7 6 11 14 8 7 -3 13 -6 13 -8z m66 -4 c0 -14 -4 -17 -16 -12 -8 5
-21 6 -27 4 -7 -3 -13 0 -13 6 0 5 9 8 20 6 11 -2 22 0 25 6 9 13 11 11 11
-10z m151 -3 c-3 -8 -6 -5 -6 6 -1 11 2 17 5 13 3 -3 4 -12 1 -19z m240 0 c-3
-8 -6 -5 -6 6 -1 11 2 17 5 13 3 -3 4 -12 1 -19z m89 3 c0 -14 -5 -17 -16 -12
-18 9 -31 8 -46 -1 -6 -4 -11 -1 -11 6 0 8 11 12 29 11 15 -1 31 1 34 6 8 13
10 11 10 -10z m-382 0 c-7 -8 -54 -9 -49 -1 2 3 15 6 29 6 14 0 23 -2 20 -5z
m480 0 c-7 -8 -54 -9 -49 -1 2 3 15 6 29 6 14 0 23 -2 20 -5z m-400 -19 c3 -5
-1 -9 -9 -9 -8 0 -12 4 -9 9 3 4 7 8 9 8 2 0 6 -4 9 -8z m-147 -24 c-3 -8 -6
-5 -6 6 -1 11 2 17 5 13 3 -3 4 -12 1 -19z m29 2 c0 -12 -4 -16 -9 -11 -5 5
-6 14 -3 20 10 15 12 14 12 -9z m182 -5 c-3 -3 -9 2 -12 12 -6 14 -5 15 5 6 7
-7 10 -15 7 -18z m36 10 c-4 -8 -11 -12 -16 -9 -6 4 -5 10 3 15 19 12 19 11
13 -6z m233 -17 c-3 -7 -5 -2 -5 12 0 14 2 19 5 13 2 -7 2 -19 0 -25z m29 12
c0 -12 -4 -16 -9 -11 -5 5 -6 14 -3 20 10 15 12 14 12 -9z m-626 0 c8 -5 11
-10 5 -10 -5 0 -17 5 -25 10 -8 5 -10 10 -5 10 6 0 17 -5 25 -10z m87 -4 c0
-8 -6 -12 -15 -8 -9 3 -13 1 -9 -5 3 -5 -1 -10 -10 -10 -12 0 -11 5 7 19 27
22 27 22 27 4z m143 4 c0 -5 -4 -10 -10 -10 -5 0 -10 5 -10 10 0 6 5 10 10 10
6 0 10 -4 10 -10z m260 -2 c0 -11 -12 -10 -30 2 -12 7 -10 9 8 7 12 0 22 -5
22 -9z m77 -4 c0 -7 -7 -10 -15 -6 -9 3 -13 1 -9 -5 3 -5 0 -10 -7 -10 -11 0
-11 5 -4 17 12 19 35 22 35 4z m140 10 c-8 -8 -48 -13 -43 -6 2 4 14 8 26 9
12 1 20 0 17 -3z m-754 -31 c-4 -10 -2 -14 4 -10 5 3 10 -1 10 -9 0 -13 -2
-13 -15 0 -8 8 -11 19 -8 25 11 17 16 13 9 -6z m-40 -8 c9 2 17 -1 17 -7 0 -5
-6 -8 -12 -5 -7 2 -20 1 -28 -4 -11 -5 -16 -2 -16 11 0 12 4 16 11 11 5 -5 18
-7 28 -6z m240 0 c15 1 30 -1 32 -5 2 -3 -12 -6 -32 -5 -23 0 -38 6 -41 15 -2
10 -1 11 5 4 4 -6 21 -10 36 -9z m55 -10 c-3 -3 -9 2 -12 12 -6 14 -5 15 5 6
7 -7 10 -15 7 -18z m87 10 c11 0 24 4 28 10 5 6 7 4 5 -5 -6 -18 -75 -22 -75
-4 0 7 5 10 11 6 6 -4 20 -7 31 -7z m74 1 c9 -10 8 -15 -2 -19 -8 -3 -13 3
-13 14 0 23 0 23 15 5z m-132 -18 c-3 -8 -6 -5 -6 6 -1 11 2 17 5 13 3 -3 4
-12 1 -19z m173 12 c0 -5 -4 -10 -10 -10 -5 0 -10 5 -10 10 0 6 5 10 10 10 6
0 10 -4 10 -10z m37 -4 c0 -8 -6 -12 -15 -9 -11 5 -11 7 0 14 7 5 13 9 14 9 0
0 1 -6 1 -14z m173 8 c0 -8 -19 -13 -24 -6 -3 5 1 9 9 9 8 0 15 -2 15 -3z
m-587 -31 c-3 -7 -6 -13 -8 -13 -2 0 -5 6 -8 13 -3 8 1 14 8 14 7 0 11 -6 8
-14z m74 10 c-4 -3 -1 -13 6 -22 11 -14 10 -14 -5 -2 -21 15 -23 31 -6 31 6 0
8 -3 5 -7z m399 -12 c-13 -12 -18 -13 -28 -2 -11 10 -9 11 6 5 12 -5 17 -4 13
3 -3 5 1 10 9 10 13 0 13 -2 0 -16z m129 9 c-3 -5 -12 -10 -18 -10 -7 0 -6 4
3 10 19 12 23 12 15 0z m-421 -16 c3 -8 2 -12 -4 -9 -6 3 -10 10 -10 16 0 14
7 11 14 -7z m-49 -3 c3 -5 2 -12 -3 -15 -5 -3 -9 1 -9 9 0 17 3 19 12 6z m97
-2 c2 -2 1 -3 -1 -2 -2 2 -9 -2 -16 -7 -8 -7 -12 -5 -12 4 0 12 22 16 29 5z
m132 -17 c3 -5 -1 -9 -9 -9 -8 0 -11 5 -8 10 4 6 0 8 -9 5 -8 -4 -15 0 -15 7
0 10 5 11 18 4 10 -5 20 -13 23 -17z m145 10 c7 -14 6 -19 -4 -19 -7 0 -11 7
-7 15 4 11 1 13 -8 7 -9 -5 -11 -4 -6 3 10 16 14 15 25 -6z m51 8 c0 -5 -2
-10 -4 -10 -3 0 -8 5 -11 10 -3 6 -1 10 4 10 6 0 11 -4 11 -10z m-647 -13 c3
-8 -1 -14 -8 -14 -7 0 -11 6 -8 14 3 7 6 13 8 13 2 0 5 -6 8 -13z m522 -14
c-1 -10 1 -23 6 -28 5 -7 1 -11 -11 -11 -13 0 -16 5 -11 16 5 8 6 21 4 28 -3
6 0 12 5 12 6 0 9 -8 7 -17z m-420 -8 c17 0 34 4 38 10 5 6 7 4 5 -5 -6 -20
-75 -21 -91 -1 -10 12 -9 13 3 6 8 -6 29 -10 45 -10z m117 0 c20 1 35 -2 33
-5 -8 -13 -79 -4 -83 10 -2 10 0 11 5 4 4 -5 25 -10 45 -9z m63 6 c3 -5 2 -12
-3 -15 -5 -3 -9 1 -9 9 0 17 3 19 12 6z m52 3 c-3 -3 -12 -4 -19 -1 -8 3 -5 6
6 6 11 1 17 -2 13 -5z m-407 -14 c0 -5 -4 -10 -10 -10 -5 0 -10 5 -10 10 0 6
5 10 10 10 6 0 10 -4 10 -10z m480 -25 c0 -5 -5 -3 -10 5 -5 8 -10 20 -10 25
0 6 5 3 10 -5 5 -8 10 -19 10 -25z m-437 -2 c-3 -7 -6 -13 -8 -13 -2 0 -5 6
-8 13 -3 8 1 14 8 14 7 0 11 -6 8 -14z m390 0 c-3 -7 -6 -13 -8 -13 -2 0 -5 6
-8 13 -3 8 1 14 8 14 7 0 11 -6 8 -14z m127 2 c0 -1 -8 -9 -18 -18 -15 -14
-19 -15 -19 -2 0 8 5 11 10 8 6 -4 8 0 4 10 -4 11 -2 14 9 10 7 -3 14 -6 14
-8z m-233 -1 c-3 -3 -12 -4 -19 -1 -8 3 -5 6 6 6 11 1 17 -2 13 -5z m313 -8
c0 -3 -4 -8 -10 -11 -5 -3 -10 -1 -10 4 0 6 5 11 10 11 6 0 10 -2 10 -4z
m-600 -26 c0 -5 -4 -10 -10 -10 -5 0 -10 5 -10 10 0 6 5 10 10 10 6 0 10 -4
10 -10z m75 -34 c1 -20 -1 -39 -5 -41 -3 -2 -6 13 -5 33 1 20 -4 41 -9 45 -7
5 -6 7 4 5 9 -3 15 -18 15 -42z m250 36 c-13 -9 -13 -62 0 -82 7 -12 6 -13 -6
-3 -10 8 -15 26 -13 50 2 46 1 43 17 43 8 0 8 -3 2 -8z m72 -4 c-2 -7 -1 -20
4 -28 5 -11 2 -16 -11 -16 -12 0 -16 4 -11 11 5 5 7 18 6 28 -2 9 1 17 7 17 5
0 8 -6 5 -12z m161 -5 c-6 -7 -12 -13 -13 -13 -2 0 -5 6 -8 13 -3 7 3 13 14
13 13 0 15 -3 7 -13z m-608 -8 c0 -2 -6 -5 -13 -8 -8 -3 -14 1 -14 8 0 7 6 11
14 8 7 -3 13 -6 13 -8z m207 9 c-3 -3 -12 -4 -19 -1 -8 3 -5 6 6 6 11 1 17 -2
13 -5z m90 0 c-3 -3 -12 -4 -19 -1 -8 3 -5 6 6 6 11 1 17 -2 13 -5z m210 -9
c0 -8 -5 -11 -10 -8 -6 4 -8 0 -5 -9 4 -8 0 -15 -8 -15 -13 0 -11 9 9 35 12
15 14 15 14 -3z m-257 -5 c0 -5 -4 -10 -10 -10 -5 0 -10 5 -10 10 0 6 5 10 10
10 6 0 10 -4 10 -10z m-202 -13 c8 -10 6 -13 -7 -13 -11 0 -17 6 -14 13 3 7 6
13 8 13 1 0 7 -6 13 -13z m-44 -5 c3 -5 -1 -9 -9 -9 -8 0 -12 4 -9 9 3 4 7 8
9 8 2 0 6 -4 9 -8z m173 2 c-3 -3 -12 -4 -19 -1 -8 3 -5 6 6 6 11 1 17 -2 13
-5z m120 0 c-3 -3 -12 -4 -19 -1 -8 3 -5 6 6 6 11 1 17 -2 13 -5z m38 -4 c3
-6 -1 -7 -9 -4 -18 7 -21 14 -7 14 6 0 13 -4 16 -10z m-375 -20 c12 -7 10 -9
-8 -7 -12 0 -22 5 -22 9 0 11 12 10 30 -2z m187 -12 c-3 -8 -6 -5 -6 6 -1 11
2 17 5 13 3 -3 4 -12 1 -19z m106 -1 c3 -7 -3 -13 -14 -13 -13 0 -15 3 -7 13
6 7 12 13 13 13 2 0 5 -6 8 -13z m-198 -5 c-13 -9 -13 -62 0 -82 7 -12 6 -13
-6 -3 -10 8 -15 26 -13 50 2 46 1 43 17 43 8 0 8 -3 2 -8z m397 -7 c-9 -14 -9
-49 0 -55 4 -3 -2 -11 -13 -19 -17 -10 -20 -10 -13 1 12 19 12 72 -1 80 -5 4
0 6 12 5 12 0 19 -6 15 -12z m76 -2 c-6 -7 -12 -13 -13 -13 -2 0 -5 6 -8 13
-3 7 3 13 14 13 13 0 15 -3 7 -13z m-551 -25 c-3 -8 -6 -5 -6 6 -1 11 2 17 5
13 3 -3 4 -12 1 -19z m147 10 c-2 -4 -14 -5 -26 -3 -32 7 -32 13 1 11 16 0 27
-4 25 -8z m88 -22 c-9 -15 -10 -48 -1 -66 5 -11 2 -16 -11 -16 -10 0 -16 5
-12 11 12 18 8 50 -8 63 -13 10 -12 11 4 5 12 -4 17 -3 13 4 -3 5 0 10 8 10 8
0 11 -5 7 -11z m71 1 c-4 -7 1 -8 13 -3 15 6 17 5 6 -5 -10 -11 -15 -10 -28 2
-13 14 -13 16 0 16 8 0 12 -5 9 -10z m-336 -19 c-3 -8 -6 -5 -6 6 -1 11 2 17
5 13 3 -3 4 -12 1 -19z m160 -10 c-3 -8 -6 -5 -6 6 -1 11 2 17 5 13 3 -3 4
-12 1 -19z m293 7 c0 -2 -6 -5 -13 -8 -8 -3 -14 1 -14 8 0 7 6 11 14 8 7 -3
13 -6 13 -8z m-473 -11 c-3 -3 -12 -4 -19 -1 -8 3 -5 6 6 6 11 1 17 -2 13 -5z
m363 -4 c0 -5 -4 -10 -10 -10 -5 0 -10 5 -10 10 0 6 5 10 10 10 6 0 10 -4 10
-10z m-153 -22 c-3 -8 -6 -5 -6 6 -1 11 2 17 5 13 3 -3 4 -12 1 -19z m210 8
c0 -8 -6 -12 -15 -9 -11 5 -11 7 0 14 7 5 13 9 14 9 0 0 1 -6 1 -14z m-359
-16 c2 -10 0 -11 -5 -4 -4 5 -25 10 -45 9 -20 -1 -35 2 -33 5 8 13 79 4 83
-10z m300 -3 c8 -10 6 -13 -7 -13 -11 0 -17 6 -14 13 3 7 6 13 8 13 1 0 7 -6
13 -13z m-306 -22 c2 3 5 -1 5 -9 0 -8 -6 -12 -15 -8 -9 3 -13 1 -9 -5 3 -5 0
-10 -8 -10 -11 0 -12 4 -4 13 6 7 7 19 3 26 -6 10 -5 11 8 1 8 -7 17 -11 20
-8z m-115 -10 c0 -8 -4 -12 -9 -9 -5 3 -6 10 -3 15 9 13 12 11 12 -6z m253 5
c-18 -12 -30 -13 -30 -2 0 4 10 9 22 9 18 2 20 0 8 -7z m250 0 c0 -5 -4 -10
-10 -10 -5 0 -10 5 -10 10 0 6 5 10 10 10 6 0 10 -4 10 -10z m-299 -23 c-10
-9 -11 -8 -5 6 3 10 9 15 12 12 3 -3 0 -11 -7 -18z m88 -8 c-12 -24 -26 -31
-26 -14 0 8 5 11 10 8 6 -4 8 0 5 9 -4 8 0 15 7 15 10 0 11 -5 4 -18z m52 6
c-5 -5 -7 -18 -6 -27 2 -10 -1 -18 -7 -18 -5 0 -8 6 -5 13 2 6 1 19 -4 27 -5
11 -2 16 11 16 12 0 16 -4 11 -11z m114 -6 c2 -9 -3 -16 -11 -16 -10 0 -11 4
-3 13 7 8 6 14 -1 17 -6 3 -6 5 1 3 7 -1 13 -9 14 -17z m-324 -26 c-12 -20
-14 -14 -5 12 4 9 9 14 11 11 3 -2 0 -13 -6 -23z m286 12 c0 -8 -4 -12 -9 -9
-5 3 -6 10 -3 15 9 13 12 11 12 -6z m-394 -8 c6 -15 -27 -17 -40 -2 -5 4 -3 5
4 1 6 -3 14 -2 18 4 8 13 12 13 18 -3z m42 -7 c-3 -5 -12 -10 -18 -10 -7 0 -6
4 3 10 19 12 23 12 15 0z m118 -7 c-3 -7 -6 -13 -8 -13 -2 0 -5 6 -8 13 -3 8
1 14 8 14 7 0 11 -6 8 -14z m54 -7 c0 -8 -6 -12 -15 -9 -11 5 -11 7 0 14 7 5
13 9 14 9 0 0 1 -6 1 -14z m160 1 c0 -8 -6 -14 -14 -14 -9 0 -10 4 -2 14 6 7
12 13 14 13 1 0 2 -6 2 -13z m-320 -11 c0 -8 -8 -11 -21 -8 -19 5 -19 6 0 13
10 4 19 8 20 8 0 1 1 -5 1 -13z m266 -9 c3 -8 -1 -14 -8 -14 -7 0 -11 6 -8 14
6 16 10 16 16 0z m-163 -7 c0 -5 -4 -10 -10 -10 -5 0 -10 5 -10 10 0 6 5 10
10 10 6 0 10 -4 10 -10z m120 -25 c0 -5 -5 -3 -10 5 -5 8 -10 20 -10 25 0 6 5
3 10 -5 5 -8 10 -19 10 -25z m-170 10 c0 -2 -6 -5 -13 -8 -8 -3 -14 1 -14 8 0
7 6 11 14 8 7 -3 13 -6 13 -8z m48 -18 c8 -10 6 -13 -7 -13 -11 0 -17 6 -14
13 3 7 6 13 8 13 1 0 7 -6 13 -13z m-44 -5 c3 -5 -1 -9 -9 -9 -8 0 -12 4 -9 9
3 4 7 8 9 8 2 0 6 -4 9 -8z m119 -5 c-4 -7 1 -8 12 -3 15 5 16 4 5 -9 -7 -8
-17 -15 -23 -15 -6 0 -7 3 -4 7 4 3 2 11 -3 18 -7 8 -5 12 5 12 8 0 11 -5 8
-10z m-163 -17 c8 -5 11 -10 5 -10 -5 0 -17 5 -25 10 -8 5 -10 10 -5 10 6 0
17 -5 25 -10z"/>
</g>
</svg>
